<svg width="20" height="20" viewBox="0 0 20 20" fill="none" xmlns="http://www.w3.org/2000/svg">
<path d="M17.7 0.579834H1.69998C1.27563 0.579834 0.868663 0.748405 0.568605 1.04846C0.268546 1.34852 0.0999756 1.75549 0.0999756 2.17983V18.1798C0.0999756 18.6042 0.268546 19.0111 0.568605 19.3112C0.868663 19.6113 1.27563 19.7798 1.69998 19.7798H17.7C18.1243 19.7798 18.5313 19.6113 18.8313 19.3112C19.1314 19.0111 19.3 18.6042 19.3 18.1798V2.17983C19.3 1.75549 19.1314 1.34852 18.8313 1.04846C18.5313 0.748405 18.1243 0.579834 17.7 0.579834ZM1.69998 18.1798V2.17983H17.7V18.1798H1.69998Z" fill="white"/>
</svg>
