<svg width="21" height="20" viewBox="0 0 21 20" fill="none" xmlns="http://www.w3.org/2000/svg">
<g clip-path="url(#clip0_983_437)">
<path d="M17.1462 0.464478H3.85387C3.07072 0.465333 2.3199 0.776815 1.76613 1.33058C1.21236 1.88435 0.90088 2.63518 0.900024 3.41832V16.7106C0.90088 17.4938 1.21236 18.2446 1.76613 18.7984C2.3199 19.3521 3.07072 19.6636 3.85387 19.6645H17.1462C17.9293 19.6636 18.6802 19.3521 19.2339 18.7984C19.7877 18.2446 20.0992 17.4938 20.1 16.7106V3.41832C20.0992 2.63518 19.7877 1.88435 19.2339 1.33058C18.6802 0.776815 17.9293 0.465333 17.1462 0.464478ZM15.4962 6.84709L9.2931 14.2317C9.22506 14.3128 9.14039 14.3782 9.04483 14.4237C8.94928 14.4692 8.84507 14.4936 8.73926 14.4952H8.72679C8.62329 14.4952 8.52095 14.4734 8.42641 14.4313C8.33187 14.3891 8.24724 14.3276 8.17802 14.2506L5.51956 11.2968C5.45205 11.2252 5.39953 11.1408 5.36509 11.0486C5.33065 10.9564 5.31499 10.8582 5.31903 10.7599C5.32306 10.6616 5.34672 10.565 5.38859 10.476C5.43047 10.3869 5.48973 10.3071 5.56289 10.2413C5.63605 10.1754 5.72162 10.1249 5.8146 10.0926C5.90757 10.0603 6.00605 10.0469 6.10427 10.0533C6.20249 10.0596 6.29845 10.0855 6.38652 10.1294C6.47458 10.1733 6.55298 10.2344 6.6171 10.3091L8.70741 12.6316L14.3654 5.89725C14.4923 5.75051 14.6719 5.65962 14.8653 5.64421C15.0587 5.6288 15.2504 5.69011 15.3989 5.81489C15.5475 5.93967 15.6409 6.1179 15.6591 6.31105C15.6773 6.5042 15.6188 6.69676 15.4962 6.84709Z" fill="white"/>
</g>
<defs>
<clipPath id="clip0_983_437">
<rect width="19.2" height="19.2" fill="white" transform="translate(0.900024 0.464478)"/>
</clipPath>
</defs>
</svg>
