<svg width="353" height="40" viewBox="0 0 353 40" fill="none" xmlns="http://www.w3.org/2000/svg">
<path fill-rule="evenodd" clip-rule="evenodd" d="M60.4276 3.96737C60.4276 3.96737 62.2482 4.08777 62.9919 4.20314C63.3392 4.257 64.3762 4.51031 65.3707 4.80235C67.4067 5.29727 69.0971 6.13594 70.433 7.52313C73.1652 10.3289 74.5314 14.3641 74.5314 19.6289C74.5314 23.0651 73.8562 26.0758 72.5057 28.6609C71.1867 31.2144 69.2553 33.2005 66.7115 34.6191C65.4384 35.3291 64.0211 35.6462 62.4701 35.7859C61.6441 35.9372 60.9619 36.0326 60.9619 36.0326H41.1953V35.561H46.9597C47.1403 35.5195 47.3018 35.4735 47.4443 35.423C47.5766 35.3788 47.6987 35.3241 47.8103 35.2591V4.75522C47.6987 4.69021 47.5766 4.63556 47.4443 4.59128C47.3527 4.55343 47.2533 4.51836 47.146 4.48607H41.1953V3.96737H60.4276ZM53.9245 35.1212V4.89115C54.0642 4.73134 54.2504 4.59631 54.483 4.48607H60.7807C62.2066 4.77566 63.4297 5.23632 64.4503 5.86805C66.366 7.00296 67.7321 8.73686 68.5487 11.0697C69.3966 13.3711 69.8206 16.2872 69.8206 19.818C69.8206 23.2543 69.4437 26.1704 68.69 28.5663C67.9363 30.9622 66.6172 32.7907 64.7329 34.0517C63.6516 34.7573 62.3168 35.2604 60.7286 35.561H54.5828C54.3083 35.4447 54.0889 35.2981 53.9245 35.1212Z" fill="#060E0E"/>
<path d="M78.1545 3.96737H93.1338V4.43547H88.8486C88.2511 4.51943 87.8539 4.65987 87.657 4.85679C87.5785 4.92818 87.5204 5.01019 87.4827 5.10281L95.452 16.9772L99.6873 10.6613C100.811 8.97612 101.466 7.68103 101.653 6.77602C101.841 5.87102 101.622 5.24688 100.998 4.9036C100.648 4.69357 100.19 4.53753 99.6239 4.43548H95.4744V3.96738H110.454V4.43548H106.784C106.067 4.64336 105.387 5.03345 104.743 5.60576C103.9 6.32352 103.042 7.32215 102.168 8.60163L96.0009 17.7952L107.834 35.4261C108.022 35.4675 108.225 35.498 108.441 35.5177L110.454 35.5177V35.9858H95.4744V35.5177L97.8149 35.5177C99.3753 35.5177 100.374 35.4241 100.811 35.2368C100.838 35.225 100.864 35.2121 100.889 35.1982L92.3383 22.3728L87.7506 29.1983C86.6272 30.8834 86.0343 32.1785 85.9718 33.0835C85.9406 33.9885 86.2995 34.6283 87.0485 35.0028C87.7974 35.346 88.827 35.5332 90.1374 35.5645H93.1339V36.0326H78.1545V35.5645H79.8397C80.8071 35.4084 81.7589 35.112 82.6015 34.3942C83.4441 33.6765 84.2555 32.5374 85.1293 31.2579L91.7213 21.4473L80.3801 4.43547H78.1545V3.96737Z" fill="#060E0E"/>
<path d="M133.238 19.1793H127.35V32.7429C127.35 33.7402 127.409 34.3716 127.525 34.638C127.641 34.9036 127.891 35.112 128.273 35.2608C128.655 35.4105 129.155 35.5029 129.77 35.535C130.385 35.5679 131.824 35.5852 134.086 35.5852C136.448 35.5852 138.211 34.8707 139.375 33.4409C140.439 32.1443 140.972 30.3323 140.972 28.0047C140.972 25.2462 140.356 23.1192 139.125 21.6228C137.795 19.994 135.833 19.1793 133.238 19.1793ZM127.35 18.7319H131.955C134.364 18.7319 136.146 18.2815 137.301 17.3805C138.687 16.3127 139.381 14.5272 139.381 12.0234C139.381 9.22024 138.819 7.25147 137.698 6.11627C136.576 4.98264 134.677 4.41465 132.004 4.41465H129.627C128.934 4.41465 128.423 4.46479 128.093 4.56507C127.763 4.66535 127.556 4.88236 127.474 5.21611C127.391 5.54985 127.35 6.20088 127.35 7.16764V18.7319ZM137.243 36.0325H114.077V35.535C117.557 35.535 119.645 35.4026 120.341 35.1363C120.672 35.0039 120.904 34.8127 121.037 34.5628C121.169 34.3137 121.235 33.7065 121.235 32.7429V7.15746C121.235 6.22674 121.169 5.62819 121.037 5.36261C120.97 5.22864 120.755 5.09624 120.39 4.96306C119.429 4.59797 117.324 4.41465 114.077 4.41465V3.96731H134.41C137.989 3.96731 140.839 4.9278 142.961 6.85035C144.651 8.37413 145.496 9.94805 145.496 11.5713C145.496 13.5597 144.984 15.0513 143.96 16.0447C142.605 17.4032 140.046 18.3645 136.282 18.9278C140.246 19.4253 143.154 20.5691 145.005 22.3584C146.525 23.8172 147.285 25.6904 147.285 27.9772C147.285 29.8332 146.423 31.574 144.7 33.1973C142.712 35.0877 140.226 36.0325 137.243 36.0325Z" fill="#060E0E"/>
<path d="M173.236 7.04702C173.297 6.05065 173.387 5.02408 173.508 3.96731C172.119 4.0277 170.534 4.07299 168.753 4.10318H158.11C156.902 4.07299 155.679 4.05789 154.441 4.05789C153.203 4.0277 152.026 3.99751 150.908 3.96731V4.87311C151.935 4.9033 152.705 5.02408 153.218 5.23543C153.332 5.27322 153.437 5.31888 153.535 5.37243V34.6274C153.437 34.681 153.332 34.7266 153.218 34.7644C152.705 34.9456 151.935 35.0663 150.908 35.1267V36.0325C152.026 36.0023 153.203 35.9872 154.441 35.9872C155.679 35.957 156.902 35.9419 158.11 35.9419C159.317 35.9118 160.434 35.8967 161.461 35.8967H164.043C165.552 35.8967 167.273 35.9118 169.206 35.9419C171.138 35.9419 172.874 35.9721 174.414 36.0325C174.293 34.8852 174.203 33.7831 174.142 32.7264C174.112 31.6394 174.097 30.8091 174.097 30.2354C174.097 28.8767 174.142 27.7898 174.233 26.9746H173.191C172.98 28.9673 172.648 30.5525 172.195 31.73C171.772 32.8773 171.062 33.7076 170.066 34.2209C169.1 34.7342 167.666 34.9909 165.764 34.9909H162.457C161.431 34.9909 160.646 34.9154 160.102 34.7644C159.933 34.7047 159.782 34.6253 159.649 34.5262V20.3622H161.778C163.107 20.3622 164.043 20.6642 164.586 21.268C165.16 21.8417 165.522 22.5965 165.673 23.5325C165.854 24.4383 166.005 25.3743 166.126 26.3405H167.168C167.047 24.6195 166.971 23.3061 166.941 22.4003C166.911 21.4945 166.896 20.6642 166.896 19.9093C166.896 19.1545 166.881 18.3242 166.851 17.4184C166.851 16.5126 166.911 15.1992 167.032 13.4782H165.99C165.899 14.0217 165.809 14.6406 165.718 15.3351C165.628 15.9993 165.462 16.6485 165.22 17.2825C164.979 17.9166 164.586 18.445 164.043 18.8677C163.529 19.2602 162.774 19.4564 161.778 19.4564H159.649V5.49401C159.782 5.40159 159.933 5.33049 160.102 5.28072C160.646 5.09956 161.431 5.00898 162.457 5.00898H166.216C167.817 5.00898 169.009 5.23543 169.794 5.68833C170.61 6.11103 171.183 6.85077 171.515 7.90753C171.848 8.9341 172.104 10.3381 172.285 12.1195H173.327C173.297 11.7874 173.267 11.3798 173.236 10.8967C173.206 10.3834 173.191 9.85499 173.191 9.31151C173.191 8.79823 173.206 8.0434 173.236 7.04702Z" fill="#060E0E"/>
<path d="M191.128 18.6269H195.67C198.045 18.6269 199.803 18.1826 200.943 17.2941C202.309 16.2417 202.993 14.4638 202.993 11.9628C202.993 9.19819 202.431 7.24801 201.309 6.1122C200.185 4.97717 198.322 4.40927 195.718 4.40927H193.374C192.691 4.40927 192.185 4.45872 191.861 4.55762C191.535 4.65575 191.331 4.86127 191.25 5.1742C191.169 5.48712 191.128 6.1207 191.128 7.07493V18.6269ZM210.985 28.5308V30.1488C210.985 32.0781 210.805 33.4179 210.443 34.1697C209.851 35.4121 208.685 36.0325 206.945 36.0325C204.677 36.0325 203.181 35.1834 202.459 33.4828C201.867 32.1098 201.571 29.4959 201.571 25.6388V24.6088C201.571 24.2827 201.588 23.9397 201.62 23.5789C201.62 21.8473 201.214 20.6791 200.4 20.0733C199.587 19.4691 198.416 19.1662 196.887 19.1662H191.128V32.347C191.128 33.3305 191.185 33.9541 191.3 34.2168C191.414 34.4787 191.659 34.6835 192.035 34.831C192.411 34.9786 193.179 35.069 194.339 35.1007C195.499 35.1339 196.718 35.1502 197.993 35.1502V35.5913H178.037V35.1007C181.469 35.1007 183.529 34.9701 184.215 34.7074C184.541 34.5776 184.771 34.3891 184.901 34.1418C185.032 33.8961 185.098 33.2981 185.098 32.347V7.06489C185.098 6.14697 185.032 5.57289 184.901 5.34341C184.836 5.21206 184.623 5.08148 184.264 4.94936C183.316 4.59007 181.24 4.40927 178.037 4.40927V3.96731H198.091C201.62 3.96731 204.431 4.9169 206.523 6.81532C208.191 8.32123 209.024 9.87581 209.024 11.4798C209.024 13.3783 208.368 14.9328 207.054 16.1436C205.479 17.617 202.984 18.5496 199.571 18.9422C203.055 19.6275 205.356 21.57 206.475 24.7688C207.036 26.3689 207.318 28.785 207.318 32.0155C207.318 32.9628 207.401 33.6481 207.566 34.0723C207.732 34.4973 208.129 34.709 208.756 34.709C209.452 34.709 209.932 34.1619 210.197 33.0663C210.46 31.9714 210.593 30.4601 210.593 28.5308H210.985Z" fill="#060E0E"/>
<path d="M214.608 3.96733V4.43544H216.012C217.073 4.46664 217.869 4.59149 218.4 4.80994C218.698 4.9095 218.944 5.06201 219.137 5.26745V34.8729C218.944 35.0783 218.698 35.2308 218.4 35.3304C218.134 35.424 217.803 35.502 217.405 35.5644H214.608V36.0326H229.587V35.5644H226.545C226.139 35.502 225.796 35.424 225.515 35.3304C225.422 35.2975 225.334 35.2588 225.251 35.2143V4.92602C225.334 4.88154 225.422 4.84285 225.515 4.80994C226.077 4.59149 226.888 4.46666 227.949 4.43545L229.587 4.43544V3.96733H214.608Z" fill="#060E0E"/>
<path d="M255.538 7.04702C255.599 6.05065 255.689 5.02408 255.81 3.96731C254.421 4.0277 252.836 4.07299 251.055 4.10318H240.412C239.204 4.07299 237.981 4.05789 236.743 4.05789C235.505 4.0277 234.328 3.99751 233.21 3.96731V4.87311C234.237 4.9033 235.007 5.02408 235.52 5.23543C235.634 5.2733 235.74 5.31908 235.837 5.37278V34.6271C235.74 34.6808 235.634 34.7265 235.52 34.7644C235.007 34.9456 234.237 35.0663 233.21 35.1267V36.0325C234.328 36.0023 235.505 35.9872 236.743 35.9872C237.981 35.957 239.204 35.9419 240.412 35.9419C241.619 35.9118 242.736 35.8967 243.763 35.8967H246.345C247.854 35.8967 249.575 35.9118 251.508 35.9419C253.44 35.9419 255.176 35.9721 256.716 36.0325C256.595 34.8852 256.505 33.7831 256.444 32.7264C256.414 31.6394 256.399 30.8091 256.399 30.2354C256.399 28.8767 256.444 27.7898 256.535 26.9746H255.493C255.282 28.9673 254.95 30.5525 254.497 31.73C254.074 32.8773 253.364 33.7076 252.368 34.2209C251.402 34.7342 249.968 34.9909 248.066 34.9909H244.759C243.733 34.9909 242.948 34.9154 242.404 34.7644C242.235 34.7048 242.084 34.6255 241.951 34.5267V20.3622H244.08C245.409 20.3622 246.345 20.6642 246.888 21.268C247.462 21.8417 247.824 22.5965 247.975 23.5325C248.156 24.4383 248.307 25.3743 248.428 26.3405H249.47C249.349 24.6195 249.273 23.3061 249.243 22.4003C249.213 21.4945 249.198 20.6642 249.198 19.9093C249.198 19.1545 249.183 18.3242 249.153 17.4184C249.153 16.5126 249.213 15.1992 249.334 13.4782H248.292C248.201 14.0217 248.111 14.6406 248.02 15.3351C247.93 15.9993 247.764 16.6485 247.522 17.2825C247.281 17.9166 246.888 18.445 246.345 18.8677C245.831 19.2602 245.076 19.4564 244.08 19.4564H241.951V5.49357C242.084 5.40136 242.235 5.33041 242.404 5.28072C242.948 5.09956 243.733 5.00898 244.759 5.00898H248.518C250.119 5.00898 251.311 5.23543 252.096 5.68833C252.912 6.11103 253.485 6.85077 253.817 7.90753C254.149 8.9341 254.406 10.3381 254.587 12.1195H255.629C255.599 11.7874 255.569 11.3798 255.538 10.8967C255.508 10.3834 255.493 9.85499 255.493 9.31151C255.493 8.79823 255.508 8.0434 255.538 7.04702Z" fill="#060E0E"/>
<path d="M288.75 26.0928V12.2299C288.75 9.20558 288.236 7.12771 287.208 5.99704C286.179 4.86714 284.322 4.30181 281.635 4.30181V3.85409H295.766V4.30181C293.41 4.30181 291.768 4.86715 290.84 5.99625C289.911 7.12614 289.447 9.20323 289.447 12.2259V36.1457H288.252L268.496 9.87442L267.952 9.22754C267.852 9.22754 267.803 9.52706 267.803 10.1245V26.3766C267.803 30.0313 268.298 32.4581 269.288 33.6547C270.278 34.8512 272.127 35.4487 274.834 35.4487V35.9466H260.339V35.4487C262.927 35.4487 264.701 34.9171 265.664 33.8523C266.625 32.7867 267.107 30.6908 267.107 27.5622V10.5919C267.107 8.72728 266.609 7.26336 265.614 6.19855C264.42 4.93458 262.661 4.30181 260.339 4.30181V3.85409H270.639L287.81 26.2441C288.238 26.8087 288.503 27.0894 288.601 27.0894C288.701 27.0894 288.75 26.7577 288.75 26.0928Z" fill="#060E0E"/>
<path d="M313.791 3.33325C315.784 3.33325 317.414 3.63518 318.682 4.23905C319.981 4.81272 321.128 5.49207 322.124 6.27709C322.728 6.72999 323.181 6.79038 323.483 6.45825C323.815 6.09593 324.042 5.26562 324.162 3.96731H325.204C325.144 5.08446 325.098 6.44316 325.068 8.0434C325.038 9.64364 325.023 11.7572 325.023 14.384H323.981C323.77 13.0857 323.574 12.0591 323.393 11.3043C323.211 10.5192 322.985 9.85499 322.713 9.31151C322.472 8.76803 322.139 8.22456 321.717 7.68108C320.781 6.44316 319.603 5.55245 318.184 5.00898C316.765 4.43531 315.271 4.14847 313.701 4.14847C312.221 4.14847 310.877 4.52589 309.67 5.28072C308.492 6.00535 307.466 7.06212 306.59 8.45101C305.745 9.83989 305.08 11.5156 304.597 13.4782C304.144 15.4407 303.918 17.6448 303.918 20.0905C303.918 22.6267 304.174 24.8761 304.688 26.8387C305.201 28.7711 305.911 30.4015 306.816 31.73C307.752 33.0585 308.839 34.07 310.077 34.7644C311.345 35.4287 312.704 35.7608 314.153 35.7608C315.512 35.7608 316.931 35.489 318.411 34.9456C319.89 34.4021 321.053 33.5265 321.898 32.3188C322.562 31.4432 323.015 30.4921 323.257 29.4655C323.528 28.4389 323.77 27.0047 323.981 25.163H325.023C325.023 27.9105 325.038 30.1297 325.068 31.8206C325.098 33.4812 325.144 34.8852 325.204 36.0325H324.162C324.042 34.7342 323.83 33.919 323.528 33.5869C323.257 33.2547 322.789 33.3 322.124 33.7227C321.007 34.5078 319.815 35.2022 318.547 35.8061C317.309 36.3797 315.708 36.6666 313.746 36.6666C310.877 36.6666 308.356 36.0174 306.182 34.7191C304.039 33.4208 302.363 31.5488 301.155 29.1032C299.978 26.6575 299.389 23.7137 299.389 20.2717C299.389 16.89 300.008 13.9311 301.246 11.3948C302.484 8.85861 304.174 6.88096 306.318 5.46188C308.492 4.04279 310.983 3.33325 313.791 3.33325Z" fill="#060E0E"/>
<path d="M351.427 3.96731C351.306 5.02407 351.216 6.05064 351.155 7.04702C351.125 8.04339 351.11 8.79822 351.11 9.31151C351.11 9.85499 351.125 10.3834 351.155 10.8967C351.185 11.3797 351.216 11.7874 351.246 12.1195H350.204C350.023 10.3381 349.766 8.9341 349.434 7.90752C349.102 6.85076 348.528 6.11103 347.713 5.68832C346.928 5.23542 345.736 5.00897 344.135 5.00897H340.376C339.35 5.00897 338.565 5.09955 338.021 5.28071C337.508 5.43168 337.161 5.7789 336.98 6.32238C336.798 6.83566 336.708 7.65088 336.708 8.76803V31.2318C336.708 32.3188 336.798 33.134 336.98 33.6775C337.161 34.2209 337.508 34.5832 338.021 34.7644C338.565 34.9154 339.35 34.9909 340.376 34.9909H343.682C345.585 34.9909 347.019 34.7342 347.985 34.2209C348.981 33.7076 349.691 32.8773 350.114 31.73C350.566 30.5525 350.899 28.9673 351.11 26.9746H352.152C352.061 27.7898 352.016 28.8767 352.016 30.2354C352.016 30.8091 352.031 31.6394 352.061 32.7264C352.121 33.7831 352.212 34.8852 352.333 36.0325C350.793 35.9721 349.057 35.9419 347.124 35.9419C345.192 35.9118 343.471 35.8967 341.961 35.8967C341.297 35.8967 340.437 35.8967 339.38 35.8967C338.353 35.8967 337.236 35.9118 336.028 35.9419C334.821 35.9419 333.598 35.957 332.36 35.9872C331.122 35.9872 329.944 36.0023 328.827 36.0325V35.1267C329.854 35.0663 330.624 34.9456 331.137 34.7644C331.681 34.5832 332.043 34.2209 332.224 33.6775C332.405 33.134 332.496 32.3188 332.496 31.2318V8.76803C332.496 7.65088 332.405 6.83566 332.224 6.32238C332.043 5.7789 331.681 5.41658 331.137 5.23542C330.624 5.02407 329.854 4.9033 328.827 4.87311V3.96731C329.944 3.9975 331.122 4.0277 332.36 4.05789C333.598 4.05789 334.821 4.07298 336.028 4.10318C337.236 4.10318 338.353 4.10318 339.38 4.10318C340.437 4.10318 341.297 4.10318 341.961 4.10318C343.35 4.10318 344.92 4.10318 346.672 4.10318C348.453 4.07298 350.038 4.02769 351.427 3.96731ZM343.637 19.4564C343.637 19.4564 343.637 19.6074 343.637 19.9093C343.637 20.2113 343.637 20.3622 343.637 20.3622H335.349C335.349 20.3622 335.349 20.2113 335.349 19.9093C335.349 19.6074 335.349 19.4564 335.349 19.4564H343.637ZM344.951 13.4782C344.83 15.1992 344.769 16.5126 344.769 17.4184C344.8 18.3242 344.815 19.1545 344.815 19.9093C344.815 20.6642 344.83 21.4945 344.86 22.4003C344.89 23.3061 344.966 24.6195 345.086 26.3405H344.045C343.924 25.3743 343.773 24.4383 343.592 23.5325C343.441 22.5965 343.079 21.8417 342.505 21.268C341.961 20.6642 341.025 20.3622 339.697 20.3622V19.4564C340.693 19.4564 341.448 19.2602 341.961 18.8677C342.505 18.445 342.897 17.9166 343.139 17.2825C343.38 16.6485 343.547 15.9993 343.637 15.3351C343.728 14.6406 343.818 14.0217 343.909 13.4782H344.951Z" fill="#060E0E"/>
<g clip-path="url(#clip0_427_923)">
<path d="M16.6669 2.45874C10.2007 2.45874 4.95898 7.70049 4.95898 14.1667C4.95898 20.6329 10.2007 25.8746 16.6669 25.8746C23.1331 25.8746 28.3749 20.6329 28.3749 14.1667C28.3749 7.70049 23.1331 2.45874 16.6669 2.45874ZM19.2109 20.0223C19.1464 20.073 19.0635 20.127 19.1263 20.1882C19.1891 20.251 19.0538 20.2929 19.0538 20.3252C19.0538 20.3574 19.1376 20.5233 19.0957 20.5958C19.0538 20.6699 19.0232 20.7755 18.991 20.8375C18.9587 20.9003 18.8862 20.9632 18.9072 21.0574C18.9281 21.1509 18.8242 21.1194 18.8242 21.2137C18.8242 21.3063 18.9177 21.2652 18.8967 21.3804C18.8766 21.4964 18.8242 21.5279 18.8242 21.61C18.8242 21.6938 18.8758 21.809 18.8758 21.8404C18.8758 21.8718 18.825 21.9774 18.7517 22.0595C18.6776 22.1433 18.6268 22.1965 18.6357 22.2472C18.647 22.2996 18.7195 22.3632 18.7082 22.3954C18.6985 22.4252 18.6051 22.5308 18.6156 22.6049C18.6268 22.6774 18.7203 22.6468 18.7404 22.6975C18.7614 22.7499 18.6156 22.7926 18.6776 22.8449C18.7404 22.8965 18.825 22.8852 18.8033 23.0125C18.7872 23.1027 18.8548 23.1438 18.9048 23.172C18.1878 23.3508 17.4403 23.4564 16.6677 23.4564C11.5436 23.4572 7.37485 19.29 7.37485 14.1667C7.37485 12.4968 7.82354 10.9324 8.59768 9.57744C8.66212 9.5436 8.70804 9.52105 8.73462 9.52749C8.78779 9.53877 8.79907 9.61207 8.88285 9.63221C8.96662 9.65396 9.03993 9.57018 9.09229 9.53877C9.14385 9.50655 9.18573 9.38168 9.13257 9.39216C9.08101 9.40263 8.94487 9.39216 8.94487 9.39216C8.94487 9.39216 9.09229 9.30838 9.09229 9.25521C9.09229 9.20205 9.11243 9.11988 9.19701 9.08846C9.27918 9.05624 9.27918 9.07719 9.22682 9.20285C9.17446 9.32852 9.33154 9.27535 9.39437 9.2238C9.45721 9.17224 9.49909 9.21332 9.61348 9.14002C9.72868 9.06591 9.72868 9.02402 9.79071 9.02402C9.85515 9.02402 9.96954 9.13921 10.0324 9.09652C10.0944 9.05624 10.274 9.14969 10.3788 9.14969C10.4819 9.14969 10.817 9.28663 10.8806 9.28663C10.9435 9.28663 11.132 9.35913 11.1424 9.49446C11.1529 9.63141 11.2149 9.62013 11.2778 9.62013C11.3406 9.62013 11.4872 9.67249 11.4872 9.72485C11.4872 9.77721 11.4469 9.98666 11.5517 10.039C11.6548 10.0906 11.7498 10.176 11.7917 10.1542C11.8336 10.1325 11.7917 9.96571 11.7402 9.94477C11.6878 9.92302 11.7184 9.84971 11.6983 9.80782C11.6773 9.76755 11.7611 9.76755 11.7925 9.84005C11.8231 9.91255 11.9069 10.0495 11.9593 10.0495C12.0108 10.0495 12.1268 10.1744 12.0946 10.2477C12.0624 10.3202 12.1268 10.4249 12.2203 10.4249C12.3145 10.4249 12.4297 10.5723 12.4724 10.5828C12.5143 10.5932 12.5667 10.6456 12.5667 10.677C12.5667 10.7092 12.619 10.8865 12.619 10.959C12.619 11.0315 12.5868 11.3247 12.5763 11.4399C12.5658 11.5551 12.6601 11.754 12.7648 11.8588C12.8695 11.9635 12.963 12.1625 13.0258 12.2052C13.0903 12.2454 13.1305 12.3614 13.2248 12.3502C13.319 12.3405 13.3819 12.4146 13.4665 12.5596C13.5494 12.707 13.6332 12.9463 13.696 12.968C13.7589 12.989 13.8636 13.0623 13.8104 13.1146C13.7589 13.1662 13.6751 13.2822 13.7702 13.2822C13.8636 13.2822 13.895 13.2298 13.9683 13.3249C14.0408 13.4183 14.1359 13.4699 14.1246 13.5343C14.1141 13.5964 14.2084 13.6173 14.2503 13.6278C14.2922 13.6382 14.3872 13.8267 14.4807 13.743C14.5749 13.6592 14.3558 13.5335 14.2922 13.4804C14.2293 13.4288 14.2922 13.3136 14.1455 13.1984C13.9989 13.0832 14.0199 12.9994 13.9152 12.9165C13.8104 12.8319 13.7275 12.7586 13.8314 12.6853C13.9361 12.6128 13.9466 12.7578 13.9885 12.8528C14.0303 12.9471 14.2495 13.1364 14.3429 13.2194C14.438 13.3031 14.6063 13.5964 14.6571 13.5964C14.7078 13.5964 14.8568 13.7639 14.8568 13.7639C14.8568 13.7639 14.9398 13.9009 14.9084 13.9411C14.8762 13.9838 14.9511 14.1409 15.0244 14.1828C15.0969 14.2247 15.3917 14.36 15.4336 14.3818C15.4755 14.4035 15.5585 14.559 15.6753 14.559C15.7881 14.559 15.8735 14.5711 15.9049 14.6025C15.9371 14.6347 16.0297 14.7596 16.0934 14.6871C16.1562 14.613 16.1659 14.5824 16.2609 14.5824C16.3552 14.5824 16.3963 14.6549 16.4486 14.7072C16.501 14.7596 16.6476 14.8965 16.7209 14.886C16.7934 14.8756 16.8885 14.9698 16.9408 14.9376C16.9932 14.9054 17.0761 14.9577 17.118 14.9795C17.1607 15.0004 17.3057 15.0745 17.2953 15.1986C17.2856 15.3251 17.379 15.3557 17.4427 15.3871C17.5055 15.4193 17.5893 15.4918 17.6425 15.5442C17.6948 15.5941 17.8092 15.6054 17.8414 15.6368C17.8737 15.669 17.8938 15.7311 17.988 15.6787C18.0807 15.6272 18.0605 15.5337 18.0605 15.5337C18.0605 15.5337 18.1653 15.512 18.2176 15.5539C18.2692 15.5941 18.3014 15.7311 18.3336 15.752C18.3634 15.773 18.4255 15.9292 18.3836 16.0436C18.3433 16.1604 18.353 16.274 18.3111 16.274C18.2684 16.274 18.2168 16.411 18.1532 16.4432C18.092 16.4738 17.9236 16.6204 17.9341 16.6728C17.9445 16.7243 18.0388 16.8822 18.0178 16.9547C17.9977 17.0288 17.8616 17.1126 17.8938 17.2286C17.9244 17.3438 18.1451 17.3752 18.154 17.4783C18.1653 17.5847 18.3231 17.815 18.3433 17.919C18.3634 18.0237 18.5415 18.1381 18.5415 18.2839C18.5415 18.4321 18.7928 18.5255 18.8451 18.5352C18.8959 18.5457 18.9918 18.6399 19.0643 18.6722C19.1368 18.7044 19.2012 18.7656 19.252 18.8494C19.3027 18.9332 19.2947 19.0604 19.2947 19.091C19.2947 19.1233 19.2624 19.4455 19.2318 19.634C19.1996 19.8233 19.2721 19.9699 19.2101 20.0231L19.2109 20.0223ZM12.4507 10.2895C12.4829 10.3 12.5449 10.362 12.5763 10.362C12.6085 10.362 12.7648 10.4885 12.8067 10.5312C12.8494 10.5715 12.8494 10.6875 12.7962 10.698C12.7431 10.7084 12.7125 10.5828 12.702 10.5304C12.6915 10.478 12.5868 10.478 12.5344 10.4466C12.4821 10.4144 12.3653 10.2614 12.4507 10.2895ZM25.9389 14.497C25.8229 14.6436 25.8342 14.7161 25.7818 14.7274C25.7302 14.7378 25.8342 14.7797 25.8543 14.8836C25.872 14.9739 25.8019 15.0641 25.905 15.147C25.5135 18.8687 22.9164 21.9411 19.4477 23.031C19.4421 23.023 19.4316 23.0109 19.4316 23.0036C19.409 22.9408 19.409 22.8159 19.4823 22.774C19.5548 22.7313 19.7337 22.5864 19.7748 22.5549C19.8167 22.5227 19.8795 22.3777 19.8473 22.356C19.8175 22.335 19.662 22.356 19.6378 22.3237C19.6177 22.2931 19.6177 22.2512 19.7224 22.1787C19.8271 22.1046 19.8795 21.9991 19.9214 21.9693C19.9633 21.9371 20.0462 21.8742 20.0785 21.8001C20.1091 21.7276 20.0462 21.7679 19.9834 21.7679C19.9206 21.7679 19.8892 21.6559 19.8892 21.602C19.8892 21.548 20.0462 21.6229 20.163 21.6439C20.2774 21.6632 20.2243 21.5915 20.2138 21.5295C20.2033 21.4666 20.2347 21.3603 20.2984 21.3925C20.3596 21.4247 20.685 21.382 20.7253 21.3716C20.768 21.3611 20.8824 21.1734 20.9243 21.1202C20.967 21.0679 20.9758 21.0155 20.9243 20.9849C20.8719 20.9527 20.8091 20.8367 20.789 20.8077C20.7638 20.7185 20.7602 20.6246 20.7785 20.5338C20.7986 20.4822 20.7785 20.8367 20.9235 20.8802C21.0717 20.9205 21.1547 20.9422 21.2908 20.8157C21.4278 20.6917 21.5309 20.6063 21.5422 20.5241C21.5526 20.4404 21.584 20.355 21.6364 20.326C21.688 20.2937 21.7194 20.4089 21.7814 20.2736C21.8458 20.1367 21.9079 20.1479 21.9707 20.0335C22.0327 19.9175 21.866 19.7717 21.99 19.6872C22.1157 19.6042 22.3364 19.4995 22.3364 19.4995C22.3364 19.4995 22.3985 19.4672 22.5241 19.435C22.649 19.4052 22.7851 19.4245 22.827 19.3625C22.8673 19.2997 22.91 19.1644 22.972 19.091C23.0365 19.0169 23.109 18.9025 23.0767 18.8494C23.0461 18.7978 23.1613 18.5674 23.1508 18.5046C23.1404 18.4418 23.0461 18.2952 23.2032 18.1695C23.3603 18.0438 23.527 17.8537 23.5383 17.803C23.548 17.7506 23.6753 17.5307 23.6624 17.4244C23.6527 17.3212 23.5383 17.1956 23.465 17.1634C23.3909 17.1344 23.2346 17.1231 23.1718 17.0401C23.109 16.9571 22.9301 16.8725 22.8681 16.8935C22.8069 16.9144 22.7013 16.9338 22.6184 16.8814C22.5338 16.8307 22.3985 16.7662 22.3461 16.7251C22.2929 16.6849 22.1576 16.6526 22.0948 16.6526C22.0319 16.6526 22.0424 16.6099 21.9482 16.7356C21.8539 16.8613 21.9482 16.9032 21.7806 16.8806C21.6114 16.8621 21.8007 16.8508 21.8966 16.7251C21.9892 16.6003 21.8853 16.5262 21.7806 16.5584C21.6759 16.5906 21.7484 16.6526 21.5816 16.684C21.4149 16.7147 21.4149 16.6099 21.5196 16.5898C21.6243 16.568 21.812 16.4738 21.812 16.4327C21.812 16.39 21.7903 16.2748 21.7073 16.2748C21.6243 16.2748 21.6428 16.1701 21.5188 16.0348C21.3931 15.8978 21.2368 15.814 21.1096 15.8334C20.9855 15.8551 20.8905 15.8865 20.8276 15.773C20.7648 15.657 20.6907 15.636 20.6488 15.574C20.6085 15.5112 20.5022 15.574 20.4716 15.5418C20.441 15.5095 20.4393 15.5112 20.4393 15.5112C20.4393 15.5112 20.3024 15.5434 20.3773 15.4483C20.4498 15.3541 20.4804 15.176 20.4498 15.1865C20.4176 15.1962 20.3652 15.3436 20.3129 15.3331C20.2621 15.3227 20.3024 15.3009 20.1977 15.2389C20.093 15.176 19.9262 15.2284 19.9262 15.2808C19.9262 15.3331 19.8738 15.375 19.8738 15.375C19.8738 15.375 19.8416 15.3444 19.811 15.2808C19.7788 15.2179 19.6338 15.2083 19.5597 15.2703C19.4872 15.3331 19.4453 15.1124 19.3929 15.1124C19.3406 15.1124 19.2367 15.1648 19.1835 15.2606C19.1319 15.3541 19.1529 15.4902 19.1094 15.4797C19.0691 15.4693 19.0586 15.292 19.0691 15.2284C19.0788 15.164 19.194 15.0609 19.1094 15.0399C19.0264 15.019 18.8999 15.1446 18.8492 15.1551C18.7613 15.1894 18.685 15.2481 18.6293 15.3243C18.5672 15.4072 18.5358 15.4596 18.4722 15.491C18.4101 15.5232 18.3167 15.491 18.3376 15.4588C18.3578 15.4282 18.1588 15.3138 18.1282 15.3541C18.096 15.3968 18.0025 15.4282 17.9083 15.4709C17.814 15.5128 17.7295 15.4185 17.7093 15.3766C17.6892 15.3347 17.6449 15.3251 17.6368 15.1881C17.6255 15.0536 17.6578 14.9062 17.6884 14.8232C17.719 14.7394 17.5313 14.5719 17.458 14.5815C17.3855 14.5936 17.3114 14.6661 17.2389 14.654C17.1648 14.646 17.197 14.6242 17.0818 14.6242C16.9658 14.6242 17.06 14.6041 17.0818 14.509C17.1011 14.4156 17.0391 14.2891 17.1543 14.2054C17.2695 14.1216 17.2284 13.9234 17.1543 13.9129C17.0818 13.9017 16.9448 13.9452 16.8514 13.9339C16.8299 13.9306 16.8079 13.9331 16.7876 13.9409C16.7673 13.9487 16.7494 13.9616 16.7356 13.9784C16.7218 13.9952 16.7126 14.0153 16.7089 14.0367C16.7052 14.0581 16.7071 14.0802 16.7145 14.1006C16.7467 14.1949 16.6629 14.2577 16.6315 14.248C16.6009 14.2376 16.559 14.1852 16.4438 14.269C16.3294 14.3512 16.2875 14.3197 16.1723 14.2263C16.0571 14.1312 15.9307 14.0378 15.9105 13.8912C15.8896 13.7462 15.8783 13.5988 15.921 13.515C15.9613 13.4312 15.9613 13.2854 15.9 13.2637C15.8372 13.2443 15.9725 13.1396 16.045 13.1187C16.1284 13.0874 16.2011 13.0329 16.2545 12.9616C16.2762 12.9197 16.381 12.9294 16.4962 12.9294C16.6105 12.9294 16.6315 12.9294 16.7459 12.9922C16.8619 13.055 16.8828 12.96 16.8828 12.9294C16.8828 12.8971 16.9247 12.8351 17.0504 12.8456C17.176 12.8569 17.3533 12.8053 17.3855 12.8359C17.4177 12.8665 17.4789 12.993 17.5418 12.9511C17.6062 12.9108 17.6255 12.8367 17.6465 12.9632C17.6674 13.088 17.719 13.2774 17.8157 13.3096C17.9083 13.3402 17.8559 13.465 17.9502 13.4755C18.0428 13.4868 18.0871 13.2782 18.0549 13.2049C18.0227 13.1324 17.9607 12.9124 17.9083 12.8601C17.8567 12.8077 17.8567 12.6716 17.9598 12.6297C18.0646 12.5878 18.3143 12.3784 18.3868 12.3155C18.4617 12.2527 18.6607 12.2003 18.5978 12.1165C18.535 12.0328 18.5141 11.9812 18.5141 11.9176C18.5141 11.8539 18.5769 11.8757 18.6083 11.9176C18.6397 11.9595 18.7646 11.8547 18.7332 11.8024C18.7026 11.7508 18.7122 11.6775 18.7855 11.6872C18.858 11.6977 18.879 11.6348 18.8484 11.5929C18.8161 11.551 18.9209 11.4987 18.995 11.5204C19.0691 11.5406 19.2568 11.5092 19.2882 11.4673C19.318 11.4254 19.2238 11.3835 19.2238 11.2997C19.2238 11.2151 19.3494 11.1418 19.4235 11.1305C19.496 11.1209 19.5903 11.1305 19.6008 11.0999C19.6112 11.0677 19.7168 10.9847 19.7264 11.058C19.7377 11.1305 19.7264 11.257 19.8102 11.257C19.894 11.257 19.9971 11.1628 20.0293 11.1523C20.0599 11.1426 20.2597 11.1007 20.3016 11.0903C20.3435 11.0798 20.594 11.058 20.5634 10.9855C20.5312 10.913 20.5006 10.8405 20.4683 10.8083C20.4361 10.7761 20.4063 10.8188 20.3636 10.8712C20.3233 10.9235 20.2484 10.9235 20.2283 10.8816C20.2073 10.8414 20.238 10.7157 20.1655 10.7568C20.0905 10.7987 20.0809 10.8405 20.0382 10.8196C19.9963 10.7987 19.9552 10.7254 19.9552 10.7254C19.9552 10.7254 20.0583 10.6738 19.985 10.5787C19.9125 10.4845 19.8078 10.5062 19.7031 10.5586C19.5983 10.6094 19.608 10.5989 19.4832 10.6311C19.3583 10.6633 19.2947 10.6931 19.2947 10.6931C19.2947 10.6931 19.4638 10.5884 19.5363 10.5256C19.6088 10.4611 19.7039 10.4305 19.7659 10.3677C19.8287 10.3049 19.9955 10.3999 19.9955 10.3999C19.9955 10.3999 20.0801 10.3153 20.0801 10.3677C20.0801 10.42 20.0583 10.5562 20.1203 10.5562C20.1848 10.5562 20.362 10.4724 20.2895 10.4515C20.2154 10.4297 20.3942 10.4515 20.4667 10.3983C20.5408 10.3459 20.623 10.3459 20.6657 10.3258C20.7076 10.3049 20.7398 10.2106 20.8123 10.2106C20.8864 10.2106 20.917 10.304 20.8123 10.3669C20.7076 10.4297 20.6971 10.5868 20.6448 10.6287C20.5932 10.669 20.6238 10.7221 20.7076 10.7117C20.7914 10.7012 20.8639 10.7221 20.938 10.7012C21.0121 10.6802 21.0532 10.7221 21.0733 10.7535C21.0943 10.7858 21.1571 10.7213 21.1571 10.7213C21.1571 10.7213 21.294 10.6907 21.3343 10.7431C21.3778 10.7946 21.4092 10.7109 21.3778 10.6593C21.3456 10.6077 21.3037 10.5546 21.2731 10.4917C21.2409 10.4289 21.2006 10.408 21.1168 10.4289C21.033 10.4499 21.0121 10.408 20.9597 10.3774C20.9074 10.3451 20.8647 10.4192 20.9074 10.3451C20.9501 10.2726 20.9702 10.2509 21.0016 10.188C21.0322 10.1252 21.1692 10.0108 21.0322 9.9786C20.8953 9.94638 20.8534 9.92705 20.8333 9.86421C20.8131 9.80219 20.656 9.68699 20.6158 9.68699C20.5723 9.68699 20.4273 9.68699 20.416 9.63463C20.4055 9.58227 20.3008 9.46707 20.2484 9.41471C20.1969 9.36235 19.9971 9.13277 19.9665 9.11102C19.9343 9.09007 19.8924 9.10055 19.7973 9.22621C19.7047 9.35268 19.6201 9.37363 19.5476 9.34221C19.4735 9.30999 19.463 9.32127 19.3913 9.23749C19.3164 9.15371 19.4638 9.14324 19.4316 9.09088C19.3994 9.03932 19.2334 9.01838 19.1287 9.0071C19.024 8.99663 18.9515 8.88143 18.7936 8.87016C18.6373 8.86049 18.4488 8.89191 18.3965 8.89191C18.3449 8.89191 18.3449 8.96441 18.324 9.08041C18.3022 9.1956 18.3965 9.22702 18.3022 9.24796C18.2088 9.26891 18.1653 9.28019 18.2603 9.32046C18.3546 9.36316 18.4802 9.52991 18.4802 9.52991C18.4802 9.52991 18.4802 9.62496 18.4053 9.67732C18.3328 9.72968 18.2587 9.78205 18.2176 9.72002C18.1749 9.65718 18.0605 9.66846 18.0928 9.7313C18.1226 9.79413 18.1854 9.82555 18.1854 9.88838C18.1854 9.9496 18.2796 10.1059 18.2176 10.159C18.1532 10.2114 18.0807 10.1703 18.0291 10.18C17.9776 10.1897 17.9244 10.0962 17.9671 10.0753C18.0074 10.0543 17.9558 9.89805 17.9558 9.89805C17.9558 9.89805 17.8302 10.0753 17.8398 9.98102C17.8511 9.88677 17.7883 9.8763 17.7883 9.8038C17.7883 9.72968 17.7238 9.69907 17.632 9.71921C17.5369 9.74016 17.4225 9.68699 17.2437 9.65477C17.1049 9.63756 16.9703 9.59525 16.8466 9.52991C16.7 9.45741 16.6476 9.50896 16.5743 9.51943C16.5018 9.52991 16.5324 9.37282 16.4373 9.35268C16.3447 9.33093 16.2923 9.37282 16.2714 9.23668C16.2497 9.10216 16.302 9.06993 16.5316 8.92252C16.762 8.77752 16.7306 8.71307 16.9086 8.69293C17.0858 8.67199 17.1712 8.71388 17.1712 8.66071C17.1712 8.60755 17.2131 8.39971 17.2131 8.50443C17.2131 8.60916 17.4242 8.61721 17.3291 8.68971C17.2357 8.76221 17.2872 8.77349 17.3613 8.77349C17.4338 8.77349 17.5708 8.70099 17.5708 8.70099C17.5708 8.70099 17.7375 8.62688 17.7802 8.68971C17.8221 8.75255 17.8221 8.81538 17.8954 8.81538C17.9687 8.81538 18.125 8.7316 17.9888 8.6583C17.8543 8.58579 17.7713 8.59627 17.6868 8.5133C17.6022 8.43032 17.6239 8.46013 17.5297 8.48107C17.4362 8.50202 17.4362 8.44885 17.404 8.44885C17.3718 8.44885 17.3202 8.4706 17.2993 8.42871C17.2792 8.38682 17.3106 8.37635 17.4161 8.37635C17.5192 8.37635 17.6449 8.40857 17.6449 8.40857L17.8012 8.35541C17.8334 8.34493 18.0001 8.32318 17.9687 8.23055C17.9365 8.13549 17.8318 8.13549 17.8012 8.10407C17.7705 8.07266 17.864 8.03157 17.9163 8.00982C17.9695 7.98888 18.1161 8.00982 18.1161 8.00982C18.1161 8.00982 18.2104 8.0203 18.2104 7.9776C18.2104 7.93491 18.1878 7.88416 18.2507 7.91557C18.3135 7.94699 18.2507 8.04043 18.3457 8.0203C18.4392 7.99855 18.4609 8.0203 18.5125 8.05091C18.5648 8.08313 18.502 8.20799 18.4504 8.22813C18.3981 8.24907 18.3135 8.29096 18.4295 8.30063C18.5455 8.31271 18.6277 8.31271 18.6277 8.31271C18.6277 8.31271 18.7018 8.24021 18.7324 8.17577C18.7646 8.11374 18.817 8.15563 18.858 8.17577C18.8983 8.19671 19.0562 8.22893 18.9096 8.27082C18.7622 8.31352 18.7324 8.36588 18.7002 8.41824C18.6695 8.4706 18.6575 8.50202 18.5229 8.4706C18.386 8.43838 18.3135 8.44966 18.2813 8.50282C18.249 8.55357 18.2708 8.72193 18.324 8.70099C18.3747 8.68005 18.4287 8.68005 18.4907 8.6591C18.5535 8.63816 18.8049 8.68004 18.8669 8.66957C18.9313 8.6591 19.0361 8.77429 19.0683 8.75335C19.0989 8.7316 19.1617 8.79363 19.2238 8.83632C19.2866 8.87821 19.2656 8.74207 19.38 8.82585C19.496 8.90963 19.4324 8.90963 19.496 8.90963C19.5581 8.90963 19.695 8.9201 19.695 8.9201C19.695 8.9201 19.7063 8.81538 19.811 8.83632C19.9157 8.85727 20.0092 8.97327 19.9987 8.88788C19.989 8.80491 20.0092 8.74288 19.9262 8.67843C19.8424 8.61641 19.7071 8.57371 19.6845 8.5431C19.6644 8.51088 19.6443 8.46899 19.6749 8.44805C19.7071 8.42791 19.8537 8.45852 19.9367 8.51249C20.0205 8.56405 20.0938 8.61721 20.1566 8.57452C20.2186 8.53182 20.2935 8.51007 20.3242 8.47946C20.3548 8.44724 20.4289 8.3538 20.4289 8.3538C20.4289 8.3538 20.1147 8.31352 20.0744 8.25955C20.0309 8.20638 19.8843 8.13307 19.8424 8.13307C19.8005 8.13307 19.6861 8.20557 19.6443 8.10085C19.6024 7.99613 19.6024 7.87127 19.5597 7.8608C19.5194 7.85032 19.0788 7.7883 19.0167 7.75607C18.9539 7.72385 18.7026 7.65135 18.6083 7.59899C18.5141 7.54663 18.3779 7.47332 18.2942 7.47332C18.2112 7.47332 17.8656 7.51521 17.8028 7.50555C17.7399 7.49427 17.5514 7.52568 17.4781 7.53616C17.4056 7.54663 17.5724 7.68277 17.4161 7.71338C17.259 7.7456 17.2792 7.76655 17.3114 7.60866C17.342 7.45238 17.2067 7.41049 17.0697 7.47332C16.9344 7.53616 16.7153 7.57804 16.7668 7.65055C16.8192 7.72466 16.7571 7.77782 16.8611 7.85032C16.9658 7.92282 17.0085 7.94457 17.143 7.9341C17.28 7.92363 17.4169 7.95424 17.4169 7.95424C17.4169 7.95424 17.4169 8.08152 17.3645 8.10166C17.3122 8.1226 17.2276 8.1226 17.2067 8.18543C17.1865 8.24827 17.0818 8.27968 17.0818 8.24827C17.0818 8.21685 17.135 8.11132 17.0617 8.05977C16.9892 8.00821 16.9674 7.99774 16.8844 8.0501C16.7998 8.10246 16.7902 8.1226 16.7475 8.03963C16.7056 7.95585 16.5799 7.88255 16.5799 7.88255C16.5799 7.88255 16.4962 7.77782 16.4333 7.72627C16.3713 7.67391 16.2561 7.68438 16.2448 7.73674C16.2352 7.78749 16.2666 7.83985 16.3093 7.93491C16.3495 8.02916 16.3922 8.20638 16.3189 8.21685C16.2464 8.22813 16.2352 8.2386 16.1618 8.25955C16.0893 8.27968 16.0571 8.22732 16.0571 8.14355C16.0571 8.05977 16.0249 7.98646 16.0467 7.95504C16.0676 7.92282 15.9629 7.97679 15.8582 7.95504C15.7534 7.93491 15.6705 7.99693 15.7744 8.02916C15.8791 8.06138 15.9008 8.18543 15.8066 8.21685C15.7115 8.24907 15.3555 8.21685 15.2403 8.21685C15.1251 8.21685 14.9583 8.24907 14.9261 8.18463C14.8939 8.1226 15.0212 8.08152 15.0937 8.08152C15.1678 8.08152 15.3869 8.08957 15.4707 7.9768C15.5545 7.8608 15.366 7.83985 15.283 7.83985C15.1992 7.83985 15.1356 7.80763 15.0413 7.71499C14.9471 7.62074 15.1058 7.55791 15.084 7.51602C15.0631 7.47413 14.9583 7.50474 14.8649 7.50474C14.7706 7.50474 14.6232 7.43224 14.6232 7.51602C14.6232 7.5998 14.7392 7.83985 14.6659 7.78749C14.5918 7.73593 14.6015 7.66182 14.5499 7.59899C14.4976 7.53696 14.4146 7.54743 14.3083 7.55871C14.2052 7.56838 14.0263 7.59899 13.9748 7.58932C13.9232 7.57885 13.9643 7.57885 13.8491 7.52649C13.7347 7.47413 13.6815 7.4846 13.5978 7.43224C13.5148 7.37827 13.5881 7.35813 13.4415 7.34766C13.2965 7.33718 13.3062 7.42016 13.1595 7.40002C13.0129 7.37907 12.971 7.41049 12.8244 7.40002C12.6778 7.38955 12.6053 7.37907 12.5828 7.45238C12.5634 7.52488 12.5207 7.65135 12.4579 7.65135C12.3951 7.65135 12.321 7.72385 12.5199 7.73513C12.7189 7.7448 12.6045 7.83824 12.7817 7.82857C12.959 7.8181 13.1168 7.8181 13.1587 7.73432C13.2006 7.64974 13.2312 7.64974 13.253 7.68116C13.2731 7.71338 13.4302 7.90027 13.4302 7.90027C13.4302 7.90027 13.5349 7.98405 13.5776 8.00499C13.6179 8.02593 13.5357 8.12018 13.452 8.06782C13.3682 8.01546 13.2103 8.02754 13.1483 7.97438C13.0854 7.92202 12.8019 7.92202 12.7294 7.93249C12.6569 7.94296 12.5304 7.90027 12.4877 7.90027C12.4474 7.90027 12.3105 8.00499 12.3105 8.00499C12.3105 8.00499 12.2581 7.92121 12.2275 7.87932C12.1953 7.83743 12.1437 7.92121 12.1018 7.93168C12.06 7.94216 11.9343 7.84791 11.8086 7.8898C11.683 7.93168 11.7248 7.97357 11.5468 7.9623C11.3688 7.95102 11.3269 7.92202 11.2649 7.93168L11.2004 7.94216C11.2004 7.94216 11.2109 7.98405 11.1384 8.02593C11.0659 8.06782 11.0119 8.12018 10.9596 8.05816C10.9088 7.99371 10.8774 7.99371 10.8468 7.98405C10.8146 7.97357 10.7501 7.92121 10.6156 7.95182C10.4787 7.98405 10.2692 7.91155 10.2289 7.91155C10.1967 7.91155 9.97679 7.89866 9.83421 7.88416C11.5355 6.04185 13.9643 4.87541 16.6669 4.87541C18.3812 4.87541 19.9834 5.35068 21.3633 6.16268C21.3152 6.18693 21.2627 6.20108 21.209 6.20426C21.1552 6.20745 21.1014 6.19961 21.0508 6.18121C20.9879 6.14657 20.9235 6.11838 20.6681 6.13288C20.4128 6.14657 20.1324 6.22955 20.1888 6.31413C20.2468 6.39791 20.0744 6.44705 20.0301 6.40516C19.9858 6.36327 19.7804 6.45349 19.7941 6.53807C19.807 6.62185 19.7619 6.71932 19.6531 6.69918C19.5452 6.67663 19.4678 6.74752 19.4622 6.81599C19.4566 6.88607 19.2125 6.93441 19.1948 6.93441C19.1754 6.93441 18.8629 6.92796 18.9773 7.01093C19.0554 7.06732 19.0981 7.03268 19.1948 7.05282C19.2914 7.07296 19.3672 7.22682 19.4179 7.24777C19.4678 7.26871 19.5387 7.24777 19.571 7.20588C19.6032 7.16399 19.6467 7.01738 19.6467 7.01738C19.6467 7.01738 19.6467 7.15674 19.724 7.18493C19.8005 7.21313 19.9898 7.16399 20.0422 7.17124C20.0946 7.17768 20.395 7.21957 20.4772 7.26146C20.5602 7.30174 20.7632 7.33074 20.8212 7.42096C20.8776 7.51199 20.8856 7.82616 20.9178 7.8608C20.9501 7.89543 21.0572 7.74802 21.0822 7.71418C21.108 7.67874 21.2433 7.69968 21.2876 7.74802C21.3327 7.79635 21.4342 7.91557 21.4286 7.96552C21.4205 8.01385 21.402 8.09038 21.3641 8.06218C21.3255 8.0356 21.2618 8.04285 21.2868 7.98646C21.3126 7.93007 21.3255 7.81166 21.2747 7.81166H21.178C21.178 7.81166 21.0814 7.78346 21.0169 7.88818C20.9525 7.99291 21.0056 8.09763 21.0492 8.09763C21.0926 8.09763 21.1982 8.09763 21.1982 8.12502C21.1982 8.15321 21.0886 8.23779 21.0951 8.28613C21.1031 8.33446 21.1837 8.50202 21.2111 8.53746C21.2368 8.5721 21.3706 8.60674 21.4084 8.6148C21.4487 8.62124 21.3198 8.62849 21.352 8.67682C21.3843 8.72516 21.4342 8.84438 21.5051 8.87257C21.5744 8.90077 21.7725 9.02563 21.7967 9.08202C21.8225 9.13841 21.9755 9.04013 22.0078 9.03368C22.04 9.02563 22.0319 9.17868 22.1222 9.18674C22.2108 9.19318 22.243 9.17224 22.3195 9.10941C22.396 9.04657 22.3775 8.9628 22.384 8.89996C22.3904 8.83713 22.384 8.7888 22.4669 8.80893C22.5507 8.83068 22.5942 8.79524 22.5878 8.72596C22.5813 8.65588 22.5112 8.57291 22.6441 8.55116C22.7787 8.53021 22.8488 8.43999 22.9317 8.43999C23.0147 8.43999 23.2459 8.47463 23.2701 8.43999C23.2942 8.40535 23.4038 8.24424 23.4739 8.2386C23.5278 8.23216 23.6543 8.22088 23.784 8.20396C25.0967 9.76891 25.8539 11.7246 25.9373 13.7655C25.8422 13.8944 25.9276 14.0112 25.9534 14.0942C25.955 14.1184 25.9582 14.1409 25.9582 14.1651C25.9582 14.2746 25.9453 14.3826 25.9421 14.4905L25.9389 14.4954V14.497ZM18.1121 11.0121C18.0605 11.0226 17.9752 10.9702 17.9752 10.8969C17.9752 10.8236 17.9027 11.0339 17.9429 11.0967C17.9864 11.1595 17.86 11.2337 17.8189 11.2337C17.7778 11.2337 17.7464 11.1394 17.756 11.0452C17.7673 10.9509 17.694 10.8679 17.5788 10.8776C17.4628 10.8889 17.4097 10.9823 17.3694 11.0145C17.3267 11.0452 17.3267 11.2224 17.3372 11.2643C17.3476 11.3062 17.3476 11.4544 17.2437 11.4431C17.1487 11.4326 17.1696 11.2554 17.1793 11.1918C17.1913 11.1289 17.1486 10.9719 17.1913 10.8889C17.2348 10.8051 17.3589 10.7737 17.4435 10.7632C17.5281 10.7527 17.7045 10.8156 17.7359 10.8051C17.7681 10.7938 17.9147 10.7938 17.9872 10.8051C18.0597 10.8132 18.1645 11.0025 18.1129 11.0129L18.1121 11.0121ZM18.2998 11.0444C18.332 11.0645 18.5495 11.0121 18.593 11.0645C18.6349 11.116 18.5503 11.1265 18.4464 11.1692C18.3417 11.2095 18.3095 11.1998 18.2692 11.2522C18.2289 11.3045 18.0903 11.3247 18.0275 11.3875C17.9647 11.452 17.8527 11.489 17.8293 11.4407C17.7971 11.3779 17.8398 11.4085 17.8495 11.3779C17.86 11.3456 18.0468 11.2731 18.0468 11.2731C18.0468 11.2731 18.2692 11.0234 18.3006 11.0435L18.2998 11.0444ZM17.462 10.677C17.4322 10.6875 17.317 10.6561 17.2203 10.6561C17.1277 10.6561 17.1478 10.5932 17.106 10.6045C17.0657 10.615 16.9706 10.6367 16.907 10.6674C16.8442 10.6996 16.7394 10.6915 16.7394 10.6351C16.7394 10.5514 16.7813 10.5723 16.9166 10.5199C17.0536 10.4676 17.201 10.321 17.263 10.383C17.3259 10.4474 17.4403 10.5199 17.5144 10.5304C17.5885 10.5417 17.4926 10.6674 17.462 10.677ZM16.3922 7.43063C16.3278 7.45077 16.1119 7.5418 16.1328 7.59013C16.1409 7.60866 16.1957 7.64652 16.2859 7.63202C16.3769 7.61752 16.5082 7.60382 16.5719 7.59738C16.6347 7.58932 16.6484 7.4846 16.5799 7.47896C16.509 7.47091 16.4543 7.40888 16.3922 7.43063ZM15.6173 7.5136C15.569 7.53535 15.4215 7.47977 15.345 7.52971C15.2967 7.55952 15.3241 7.66102 15.4014 7.66666C15.4779 7.67471 15.6108 7.61832 15.6237 7.66102C15.6382 7.70291 15.6866 7.89141 15.8122 7.82857C15.9379 7.76655 15.9307 7.71096 15.9653 7.70371C15.9999 7.69566 15.9588 7.5426 15.9025 7.50796C15.8461 7.47332 15.6656 7.49427 15.6173 7.51602V7.5136ZM15.3652 6.92152C15.3788 6.95696 15.3587 6.98435 15.4562 6.99804C15.5528 7.01255 15.5955 7.02624 15.6519 7.02624C15.7083 7.02624 15.6866 6.93521 15.6382 6.87318C15.5899 6.81035 15.6036 6.8168 15.4771 6.78216C15.3681 6.75393 15.255 6.7444 15.1428 6.75396C15.059 6.76202 14.968 6.74027 14.9471 6.83774C14.9366 6.88849 15.0035 6.92877 15.0872 6.92877C15.171 6.92877 15.3515 6.88768 15.3652 6.92152ZM15.5472 7.30496C15.5827 7.3823 15.5827 7.34685 15.6809 7.35491C15.7776 7.36296 15.8541 7.25824 15.8614 7.2228C15.8694 7.18735 15.813 7.11807 15.6801 7.13177C15.5472 7.14546 15.1428 7.11082 15.0872 7.15916C15.0333 7.20507 15.0872 7.34605 15.0655 7.36055C15.0445 7.37424 15.0735 7.43707 15.1275 7.42338C15.1839 7.40968 15.2113 7.27677 15.254 7.27677C15.2959 7.27677 15.5118 7.22843 15.5472 7.30496ZM14.2358 7.0198C14.2777 7.05443 14.3832 7.02624 14.3751 6.9916C14.3687 6.95777 14.4178 6.8176 14.3348 6.81116C14.2503 6.80471 14.1335 6.88849 14.0062 6.93038C13.9256 6.95696 13.9433 7.0351 13.9981 7.0351C14.0529 7.0351 14.1947 6.98596 14.2358 7.0198ZM14.8303 7.14546C14.7602 7.1801 14.7384 7.20185 14.6772 7.18735C14.6128 7.17366 14.6128 7.06168 14.5016 7.08263C14.3904 7.10357 14.3695 7.16641 14.3348 7.19541C14.3002 7.22441 14.2221 7.24374 14.1955 7.22924C14.1681 7.21555 14.007 7.12452 14.007 7.12452C14.007 7.12452 13.6719 7.11082 13.6582 7.06813C13.6445 7.02785 13.5889 6.95777 13.435 6.97146C13.2812 6.98516 13.0162 7.07618 12.9743 7.07618C12.9324 7.07618 13.0242 7.15996 12.9662 7.15996C12.9114 7.15996 12.8422 7.15352 12.8212 7.21635C12.8067 7.25824 12.884 7.25663 12.9743 7.25663C13.0629 7.25663 13.2111 7.25663 13.253 7.23649C13.2949 7.21555 13.5043 7.16641 13.4971 7.22843C13.489 7.29288 13.5808 7.38955 13.6292 7.37585C13.6775 7.36216 13.7758 7.27113 13.8241 7.30657C13.8725 7.34121 13.8805 7.42418 13.9288 7.44593C13.9772 7.46607 14.1109 7.46607 14.1737 7.44593C14.2358 7.42418 14.4106 7.42418 14.4879 7.43788C14.5636 7.45399 14.7876 7.49427 14.8085 7.45399C14.8295 7.41049 14.8923 7.40405 14.8987 7.36216C14.9052 7.32027 14.939 7.18896 14.939 7.18896C14.939 7.18896 14.8987 7.11163 14.8295 7.14627L14.8303 7.14546ZM18.3626 14.3608C18.266 14.3769 18.2901 14.5622 18.4045 14.53C18.5197 14.4954 18.4577 14.3423 18.3626 14.3608ZM19.2729 14.1111C19.1891 14.0894 19.0957 14.1111 19.0312 14.1208C18.9692 14.1312 18.7912 14.2883 18.7912 14.2883C18.7912 14.2883 18.9064 14.3093 18.9789 14.3093C19.053 14.3093 19.0949 14.3495 19.1561 14.3818C19.2205 14.414 19.3349 14.3399 19.376 14.3399C19.4187 14.3399 19.4711 14.4655 19.4807 14.3294C19.4928 14.1941 19.3567 14.1312 19.2729 14.1111ZM16.3568 7.32591C16.323 7.24213 16.149 7.21313 16.1127 7.29771C16.0821 7.37021 16.3914 7.41049 16.3568 7.32591ZM18.353 13.5972C18.4682 13.5762 18.4045 13.4812 18.3103 13.4924C18.2152 13.5029 18.2378 13.6181 18.353 13.5972ZM19.7442 14.244C19.6475 14.2617 19.67 14.4478 19.7844 14.4132C19.9012 14.381 19.8384 14.2279 19.7442 14.244ZM18.477 13.9323C18.4045 13.9427 18.2474 13.8598 18.1628 13.7857C18.0799 13.7132 17.9228 13.7132 17.86 13.7132C17.7987 13.7132 17.5458 13.7857 17.5458 13.7857C17.5361 13.8904 17.6408 13.8582 17.7665 13.8582C17.8922 13.8582 18.1129 13.838 18.1532 13.8904C18.1951 13.9419 18.3828 14.0257 18.4351 14.0676C18.4875 14.1103 18.655 14.1208 18.6655 14.0789C18.676 14.037 18.5503 13.9218 18.477 13.9323ZM17.2284 7.24938C17.1237 7.24132 16.9916 7.24132 16.9078 7.24938C16.8232 7.25582 16.7604 7.19299 16.6983 7.15835C16.6355 7.12291 16.4953 7.01093 16.4124 6.99724C16.3286 6.98355 16.3431 6.98355 16.1683 6.94085C16.0797 6.91991 15.9315 6.89252 15.9315 6.87238C15.9315 6.85143 15.8896 6.96905 15.9661 7.0053C16.0434 7.03993 16.1691 7.10196 16.2593 7.13741C16.3512 7.17205 16.5252 7.1793 16.5815 7.25018C16.6363 7.31866 16.8248 7.37505 16.8248 7.37505L17.048 7.39518C17.048 7.39518 17.201 7.36055 17.3621 7.37424C17.5232 7.38713 17.7593 7.40807 17.8938 7.40163C18.0243 7.39518 18.0452 7.3533 18.0605 7.3251C18.0734 7.2961 17.8156 7.24052 17.752 7.24777C17.6908 7.2526 17.3331 7.2526 17.2284 7.24616V7.24938ZM17.6191 8.85404C17.5917 8.88627 17.7456 8.93057 17.7722 8.88868C17.8003 8.84841 17.6916 8.77752 17.6191 8.85404ZM18.0879 8.99905C18.1572 8.97166 18.1226 8.88788 18.0235 8.91607C17.9131 8.9483 18.017 9.02885 18.0879 9.00066V8.99905Z" fill="#060E0E"/>
<path fill-rule="evenodd" clip-rule="evenodd" d="M19.0584 15.7435C19.1244 15.6634 19.2044 15.5574 19.1903 15.5174C19.1903 15.4773 19.0702 15.3973 18.9901 15.3714C18.9815 15.3682 18.972 15.3645 18.9614 15.3603C18.7913 15.2939 18.3459 15.12 17.193 15.3572C15.9659 15.6116 14.4326 15.9696 14.3267 15.9979C14.3109 16.0016 14.2938 16.0074 14.2753 16.0136C14.1666 16.0503 14.0097 16.1031 13.7944 15.8636C13.54 15.5833 10.3415 11.6665 10.3415 11.6665L9.927 11.7442L11.5404 16.6102C11.5404 16.6102 8.66221 17.2509 8.39607 17.371L6.94286 15.8777L6.5825 15.9979L7.44924 17.769C7.44924 17.769 7.10302 17.9834 7.04885 18.0234C7.02294 18.0352 7.00881 18.0517 7.00881 18.0752C7.02294 18.1153 7.0512 18.1153 7.07475 18.1153C7.1407 18.1294 7.5411 18.1953 7.5411 18.1953L7.46338 20.1691L7.83551 20.129L8.568 18.1836C8.86241 18.1836 11.7547 17.6089 11.7547 17.6089L12.221 22.701L12.6332 22.6068C13.1197 20.8647 13.6088 19.1234 14.1005 17.3828C14.2059 17.0667 14.382 17.0587 14.4952 17.0535C14.511 17.0528 14.5256 17.0521 14.5386 17.0507C14.573 17.0417 14.752 17.0076 15.0196 16.9567C15.5958 16.8471 16.5827 16.6594 17.4191 16.476C18.5895 16.2216 18.9232 15.8813 19.043 15.7591C19.0486 15.7534 19.0537 15.7482 19.0584 15.7435ZM-2.26719 22.275H-3.33301C-3.33169 22.2652 -3.32996 22.2554 -3.32782 22.2456C-3.30758 22.1532 -3.25205 22.0724 -3.17307 22.0203C-2.64077 21.6741 -2.09435 21.342 -1.54792 21.0358C-1.50784 21.0124 -1.46349 20.9973 -1.41748 20.9912C-1.37146 20.9852 -1.3247 20.9884 -1.27995 21.0007C-1.2352 21.013 -1.19335 21.0341 -1.15686 21.0628C-1.12037 21.0915 -1.08997 21.1271 -1.06745 21.1677C-1.04415 21.2079 -1.02913 21.2524 -1.02328 21.2985C-1.01742 21.3446 -1.02085 21.3914 -1.03336 21.4362C-1.04587 21.481 -1.06721 21.5228 -1.09612 21.5592C-1.12503 21.5956 -1.16092 21.6259 -1.2017 21.6482C-1.55454 21.8511 -1.91359 22.0603 -2.26719 22.275ZM0.0701697 20.7625C0.133471 20.8114 0.211576 20.8372 0.29155 20.8356C0.346908 20.832 0.40116 20.8184 0.451706 20.7956C0.998131 20.5294 1.57046 20.275 2.1428 20.0348C2.22863 19.9975 2.29642 19.928 2.33164 19.8412C2.36686 19.7545 2.36671 19.6574 2.33122 19.5708C2.25114 19.3965 2.03681 19.3023 1.86487 19.3824C1.27841 19.6226 0.703722 19.8888 0.131389 20.1691C0.0594378 20.204 0.00158548 20.2625 -0.032588 20.3348C-0.0667615 20.4071 -0.0752044 20.489 -0.0565164 20.5667C-0.0378287 20.6445 0.00686884 20.7136 0.0701697 20.7625ZM3.55203 19.3149C3.61149 19.3579 3.68279 19.3815 3.75616 19.3824H3.75852C3.79621 19.3824 3.83624 19.3824 3.87628 19.3565C4.44862 19.1563 5.04921 18.9702 5.64981 18.8101C5.73994 18.7833 5.8158 18.722 5.86082 18.6394C5.90584 18.5569 5.91635 18.4599 5.89005 18.3696C5.86329 18.2795 5.80194 18.2036 5.71941 18.1586C5.63688 18.1136 5.53987 18.1031 5.44961 18.1294C4.84902 18.2895 4.23664 18.4897 3.63605 18.6899C3.54951 18.7238 3.47927 18.7896 3.43983 18.8738C3.40039 18.9579 3.39475 19.054 3.42407 19.1422C3.44788 19.2116 3.49258 19.2719 3.55203 19.3149Z" fill="#A4A4A4"/>
<path d="M35.8619 13.7931C35.8635 11.2573 35.3642 8.7462 34.3925 6.404C33.4208 4.0618 31.996 1.93466 30.1998 0.144775L28.2481 2.0965C31.3471 5.19423 33.0906 9.3949 33.096 13.7767C33.1014 18.1585 31.3682 22.3634 28.2767 25.4687C25.1853 28.574 20.9882 30.3261 16.6064 30.3403C12.2246 30.3546 8.0162 28.6299 4.90461 25.5448L4.8522 25.4924L2.90186 27.4427C4.69202 29.2388 6.81944 30.6635 9.16188 31.635C11.5043 32.6064 14.0156 33.1054 16.5515 33.1034V37.2413H11.0343V39.9999H24.8274V37.2413H19.3101V32.8827C23.9009 32.2172 28.0991 29.9225 31.138 26.4177C34.1769 22.9128 35.8536 18.4318 35.8619 13.7931Z" fill="#060E0E"/>
</g>
<defs>
<clipPath id="clip0_427_923">
<rect width="35.8621" height="40" fill="white"/>
</clipPath>
</defs>
</svg>
