<svg width="354" height="40" viewBox="0 0 354 40" fill="none" xmlns="http://www.w3.org/2000/svg">
<path fill-rule="evenodd" clip-rule="evenodd" d="M61.2606 3.96737C61.2606 3.96737 63.0812 4.08777 63.825 4.20314C64.1722 4.257 65.2092 4.51031 66.2037 4.80235C68.2397 5.29727 69.9301 6.13594 71.266 7.52313C73.9982 10.3289 75.3644 14.3641 75.3644 19.6289C75.3644 23.0651 74.6892 26.0758 73.3387 28.6609C72.0197 31.2144 70.0883 33.2005 67.5445 34.6191C66.2714 35.3291 64.8541 35.6462 63.3031 35.7859C62.4771 35.9372 61.7949 36.0326 61.7949 36.0326H42.0283V35.561H47.7927C47.9733 35.5195 48.1348 35.4735 48.2773 35.423C48.4097 35.3788 48.5317 35.3241 48.6433 35.2591V4.75522C48.5317 4.69021 48.4097 4.63556 48.2773 4.59128C48.1857 4.55343 48.0863 4.51836 47.979 4.48607H42.0283V3.96737H61.2606ZM54.7575 35.1212V4.89115C54.8972 4.73134 55.0834 4.59631 55.3161 4.48607H61.6137C63.0396 4.77566 64.2627 5.23632 65.2833 5.86805C67.199 7.00296 68.5651 8.73686 69.3817 11.0697C70.2296 13.3711 70.6536 16.2872 70.6536 19.818C70.6536 23.2543 70.2767 26.1704 69.523 28.5663C68.7693 30.9622 67.4502 32.7907 65.5659 34.0517C64.4846 34.7573 63.1498 35.2604 61.5616 35.561H55.4158C55.1413 35.4447 54.9219 35.2981 54.7575 35.1212Z" fill="white"/>
<path d="M78.9875 3.96737H93.9668V4.43547H89.6816C89.0841 4.51943 88.687 4.65987 88.49 4.85679C88.4115 4.92818 88.3534 5.01019 88.3157 5.10281L96.285 16.9772L100.52 10.6613C101.644 8.97612 102.299 7.68103 102.486 6.77602C102.674 5.87102 102.455 5.24688 101.831 4.9036C101.481 4.69357 101.023 4.53753 100.457 4.43548H96.3074V3.96738H111.287V4.43548H107.617C106.9 4.64336 106.22 5.03345 105.576 5.60576C104.733 6.32352 103.875 7.32215 103.001 8.60163L96.834 17.7952L108.667 35.4261C108.855 35.4675 109.058 35.498 109.274 35.5177L111.287 35.5177V35.9858H96.3074V35.5177L98.6479 35.5177C100.208 35.5177 101.207 35.4241 101.644 35.2368C101.671 35.225 101.697 35.2121 101.722 35.1982L93.1713 22.3728L88.5836 29.1983C87.4602 30.8834 86.8673 32.1785 86.8048 33.0835C86.7736 33.9885 87.1325 34.6283 87.8815 35.0028C88.6304 35.346 89.66 35.5332 90.9705 35.5645H93.9669V36.0326H78.9875V35.5645H80.6727C81.6401 35.4084 82.5919 35.112 83.4345 34.3942C84.2771 33.6765 85.0885 32.5374 85.9623 31.2579L92.5543 21.4473L81.2131 4.43547H78.9875V3.96737Z" fill="white"/>
<path d="M134.071 19.1793H128.183V32.7429C128.183 33.7402 128.242 34.3716 128.358 34.638C128.474 34.9036 128.724 35.112 129.106 35.2608C129.488 35.4105 129.988 35.5029 130.603 35.535C131.218 35.5679 132.657 35.5852 134.919 35.5852C137.281 35.5852 139.044 34.8707 140.208 33.4409C141.272 32.1443 141.805 30.3323 141.805 28.0047C141.805 25.2462 141.189 23.1192 139.958 21.6228C138.628 19.994 136.666 19.1793 134.071 19.1793ZM128.183 18.7319H132.788C135.197 18.7319 136.979 18.2815 138.134 17.3805C139.52 16.3127 140.214 14.5272 140.214 12.0234C140.214 9.22024 139.652 7.25147 138.531 6.11627C137.409 4.98264 135.51 4.41465 132.837 4.41465H130.46C129.767 4.41465 129.256 4.46479 128.926 4.56507C128.596 4.66535 128.389 4.88236 128.307 5.21611C128.225 5.54985 128.183 6.20088 128.183 7.16764V18.7319ZM138.076 36.0325H114.91V35.535C118.39 35.535 120.478 35.4026 121.174 35.1363C121.505 35.0039 121.737 34.8127 121.87 34.5628C122.002 34.3137 122.068 33.7065 122.068 32.7429V7.15746C122.068 6.22674 122.002 5.62819 121.87 5.36261C121.803 5.22864 121.588 5.09624 121.223 4.96306C120.262 4.59797 118.157 4.41465 114.91 4.41465V3.96731H135.243C138.822 3.96731 141.672 4.9278 143.794 6.85035C145.484 8.37413 146.329 9.94805 146.329 11.5713C146.329 13.5597 145.817 15.0513 144.793 16.0447C143.438 17.4032 140.879 18.3645 137.115 18.9278C141.079 19.4253 143.987 20.5691 145.839 22.3584C147.358 23.8172 148.118 25.6904 148.118 27.9772C148.118 29.8332 147.256 31.574 145.533 33.1973C143.545 35.0877 141.059 36.0325 138.076 36.0325Z" fill="white"/>
<path d="M174.069 7.04702C174.13 6.05065 174.22 5.02408 174.341 3.96731C172.952 4.0277 171.367 4.07299 169.586 4.10318H158.943C157.735 4.07299 156.512 4.05789 155.274 4.05789C154.036 4.0277 152.859 3.99751 151.742 3.96731V4.87311C152.768 4.9033 153.538 5.02408 154.051 5.23543C154.165 5.27322 154.27 5.31888 154.368 5.37243V34.6274C154.27 34.681 154.165 34.7266 154.051 34.7644C153.538 34.9456 152.768 35.0663 151.742 35.1267V36.0325C152.859 36.0023 154.036 35.9872 155.274 35.9872C156.512 35.957 157.735 35.9419 158.943 35.9419C160.15 35.9118 161.267 35.8967 162.294 35.8967H164.876C166.385 35.8967 168.106 35.9118 170.039 35.9419C171.971 35.9419 173.707 35.9721 175.247 36.0325C175.126 34.8852 175.036 33.7831 174.975 32.7264C174.945 31.6394 174.93 30.8091 174.93 30.2354C174.93 28.8767 174.975 27.7898 175.066 26.9746H174.024C173.813 28.9673 173.481 30.5525 173.028 31.73C172.605 32.8773 171.895 33.7076 170.899 34.2209C169.933 34.7342 168.499 34.9909 166.597 34.9909H163.29C162.264 34.9909 161.479 34.9154 160.935 34.7644C160.766 34.7047 160.615 34.6253 160.482 34.5262V20.3622H162.611C163.94 20.3622 164.876 20.6642 165.419 21.268C165.993 21.8417 166.355 22.5965 166.506 23.5325C166.687 24.4383 166.838 25.3743 166.959 26.3405H168.001C167.88 24.6195 167.804 23.3061 167.774 22.4003C167.744 21.4945 167.729 20.6642 167.729 19.9093C167.729 19.1545 167.714 18.3242 167.684 17.4184C167.684 16.5126 167.744 15.1992 167.865 13.4782H166.823C166.732 14.0217 166.642 14.6406 166.551 15.3351C166.461 15.9993 166.295 16.6485 166.053 17.2825C165.812 17.9166 165.419 18.445 164.876 18.8677C164.362 19.2602 163.607 19.4564 162.611 19.4564H160.482V5.49401C160.615 5.40159 160.766 5.33049 160.935 5.28072C161.479 5.09956 162.264 5.00898 163.29 5.00898H167.049C168.65 5.00898 169.842 5.23543 170.627 5.68833C171.443 6.11103 172.016 6.85077 172.348 7.90753C172.681 8.9341 172.937 10.3381 173.118 12.1195H174.16C174.13 11.7874 174.1 11.3798 174.069 10.8967C174.039 10.3834 174.024 9.85499 174.024 9.31151C174.024 8.79823 174.039 8.0434 174.069 7.04702Z" fill="white"/>
<path d="M191.961 18.6269H196.503C198.878 18.6269 200.636 18.1826 201.776 17.2941C203.142 16.2417 203.826 14.4638 203.826 11.9628C203.826 9.19819 203.264 7.24801 202.142 6.1122C201.018 4.97717 199.155 4.40927 196.551 4.40927H194.207C193.524 4.40927 193.018 4.45872 192.694 4.55762C192.368 4.65575 192.164 4.86127 192.083 5.1742C192.002 5.48712 191.961 6.1207 191.961 7.07493V18.6269ZM211.818 28.5308V30.1488C211.818 32.0781 211.638 33.4179 211.276 34.1697C210.684 35.4121 209.518 36.0325 207.778 36.0325C205.51 36.0325 204.014 35.1834 203.292 33.4828C202.7 32.1098 202.404 29.4959 202.404 25.6388V24.6088C202.404 24.2827 202.421 23.9397 202.453 23.5789C202.453 21.8473 202.047 20.6791 201.233 20.0733C200.42 19.4691 199.249 19.1662 197.72 19.1662H191.961V32.347C191.961 33.3305 192.018 33.9541 192.133 34.2168C192.247 34.4787 192.492 34.6835 192.868 34.831C193.244 34.9786 194.012 35.069 195.172 35.1007C196.332 35.1339 197.551 35.1502 198.826 35.1502V35.5913H178.87V35.1007C182.302 35.1007 184.362 34.9701 185.048 34.7074C185.374 34.5776 185.604 34.3891 185.734 34.1418C185.865 33.8961 185.931 33.2981 185.931 32.347V7.06489C185.931 6.14697 185.865 5.57289 185.734 5.34341C185.669 5.21206 185.456 5.08148 185.097 4.94936C184.149 4.59007 182.073 4.40927 178.87 4.40927V3.96731H198.924C202.453 3.96731 205.264 4.9169 207.356 6.81532C209.024 8.32123 209.857 9.87581 209.857 11.4798C209.857 13.3783 209.201 14.9328 207.887 16.1436C206.312 17.617 203.817 18.5496 200.404 18.9422C203.888 19.6275 206.189 21.57 207.308 24.7688C207.869 26.3689 208.151 28.785 208.151 32.0155C208.151 32.9628 208.234 33.6481 208.399 34.0723C208.565 34.4973 208.962 34.709 209.589 34.709C210.285 34.709 210.765 34.1619 211.03 33.0663C211.293 31.9714 211.426 30.4601 211.426 28.5308H211.818Z" fill="white"/>
<path d="M215.441 3.96733V4.43544H216.845C217.906 4.46664 218.702 4.59149 219.233 4.80994C219.531 4.9095 219.777 5.06201 219.97 5.26745V34.8729C219.777 35.0783 219.531 35.2308 219.233 35.3304C218.967 35.424 218.636 35.502 218.238 35.5644H215.441V36.0326H230.42V35.5644H227.378C226.972 35.502 226.629 35.424 226.348 35.3304C226.255 35.2975 226.167 35.2588 226.084 35.2143V4.92602C226.167 4.88154 226.255 4.84285 226.348 4.80994C226.91 4.59149 227.721 4.46666 228.782 4.43545L230.42 4.43544V3.96733H215.441Z" fill="white"/>
<path d="M256.371 7.04702C256.432 6.05065 256.522 5.02408 256.643 3.96731C255.254 4.0277 253.669 4.07299 251.888 4.10318H241.245C240.037 4.07299 238.814 4.05789 237.576 4.05789C236.338 4.0277 235.161 3.99751 234.044 3.96731V4.87311C235.07 4.9033 235.84 5.02408 236.353 5.23543C236.467 5.2733 236.573 5.31908 236.67 5.37278V34.6271C236.573 34.6808 236.467 34.7265 236.353 34.7644C235.84 34.9456 235.07 35.0663 234.044 35.1267V36.0325C235.161 36.0023 236.338 35.9872 237.576 35.9872C238.814 35.957 240.037 35.9419 241.245 35.9419C242.452 35.9118 243.569 35.8967 244.596 35.8967H247.178C248.687 35.8967 250.408 35.9118 252.341 35.9419C254.273 35.9419 256.009 35.9721 257.549 36.0325C257.428 34.8852 257.338 33.7831 257.277 32.7264C257.247 31.6394 257.232 30.8091 257.232 30.2354C257.232 28.8767 257.277 27.7898 257.368 26.9746H256.326C256.115 28.9673 255.783 30.5525 255.33 31.73C254.907 32.8773 254.197 33.7076 253.201 34.2209C252.235 34.7342 250.801 34.9909 248.899 34.9909H245.592C244.566 34.9909 243.781 34.9154 243.237 34.7644C243.068 34.7048 242.917 34.6255 242.784 34.5267V20.3622H244.913C246.242 20.3622 247.178 20.6642 247.721 21.268C248.295 21.8417 248.657 22.5965 248.808 23.5325C248.989 24.4383 249.14 25.3743 249.261 26.3405H250.303C250.182 24.6195 250.106 23.3061 250.076 22.4003C250.046 21.4945 250.031 20.6642 250.031 19.9093C250.031 19.1545 250.016 18.3242 249.986 17.4184C249.986 16.5126 250.046 15.1992 250.167 13.4782H249.125C249.034 14.0217 248.944 14.6406 248.853 15.3351C248.763 15.9993 248.597 16.6485 248.355 17.2825C248.114 17.9166 247.721 18.445 247.178 18.8677C246.664 19.2602 245.909 19.4564 244.913 19.4564H242.784V5.49357C242.917 5.40136 243.068 5.33041 243.237 5.28072C243.781 5.09956 244.566 5.00898 245.592 5.00898H249.351C250.952 5.00898 252.144 5.23543 252.929 5.68833C253.745 6.11103 254.318 6.85077 254.65 7.90753C254.982 8.9341 255.239 10.3381 255.42 12.1195H256.462C256.432 11.7874 256.402 11.3798 256.371 10.8967C256.341 10.3834 256.326 9.85499 256.326 9.31151C256.326 8.79823 256.341 8.0434 256.371 7.04702Z" fill="white"/>
<path d="M289.583 26.0928V12.2299C289.583 9.20558 289.069 7.12771 288.041 5.99704C287.012 4.86714 285.155 4.30181 282.468 4.30181V3.85409H296.599V4.30181C294.243 4.30181 292.601 4.86715 291.673 5.99625C290.744 7.12614 290.28 9.20323 290.28 12.2259V36.1457H289.085L269.329 9.87442L268.785 9.22754C268.685 9.22754 268.636 9.52706 268.636 10.1245V26.3766C268.636 30.0313 269.131 32.4581 270.121 33.6547C271.111 34.8512 272.96 35.4487 275.667 35.4487V35.9466H261.172V35.4487C263.76 35.4487 265.534 34.9171 266.497 33.8523C267.458 32.7867 267.94 30.6908 267.94 27.5622V10.5919C267.94 8.72728 267.442 7.26336 266.447 6.19855C265.253 4.93458 263.494 4.30181 261.172 4.30181V3.85409H271.472L288.643 26.2441C289.071 26.8087 289.336 27.0894 289.434 27.0894C289.534 27.0894 289.583 26.7577 289.583 26.0928Z" fill="white"/>
<path d="M314.624 3.33325C316.617 3.33325 318.247 3.63518 319.515 4.23905C320.814 4.81272 321.961 5.49207 322.957 6.27709C323.561 6.72999 324.014 6.79038 324.316 6.45825C324.648 6.09593 324.875 5.26562 324.995 3.96731H326.037C325.977 5.08446 325.931 6.44316 325.901 8.0434C325.871 9.64364 325.856 11.7572 325.856 14.384H324.814C324.603 13.0857 324.407 12.0591 324.226 11.3043C324.044 10.5192 323.818 9.85499 323.546 9.31151C323.305 8.76803 322.973 8.22456 322.55 7.68108C321.614 6.44316 320.436 5.55245 319.017 5.00898C317.598 4.43531 316.104 4.14847 314.534 4.14847C313.054 4.14847 311.71 4.52589 310.503 5.28072C309.325 6.00535 308.299 7.06212 307.423 8.45101C306.578 9.83989 305.913 11.5156 305.43 13.4782C304.977 15.4407 304.751 17.6448 304.751 20.0905C304.751 22.6267 305.008 24.8761 305.521 26.8387C306.034 28.7711 306.744 30.4015 307.649 31.73C308.585 33.0585 309.672 34.07 310.91 34.7644C312.178 35.4287 313.537 35.7608 314.986 35.7608C316.345 35.7608 317.764 35.489 319.244 34.9456C320.723 34.4021 321.886 33.5265 322.731 32.3188C323.395 31.4432 323.848 30.4921 324.09 29.4655C324.361 28.4389 324.603 27.0047 324.814 25.163H325.856C325.856 27.9105 325.871 30.1297 325.901 31.8206C325.931 33.4812 325.977 34.8852 326.037 36.0325H324.995C324.875 34.7342 324.663 33.919 324.361 33.5869C324.09 33.2547 323.622 33.3 322.957 33.7227C321.84 34.5078 320.648 35.2022 319.38 35.8061C318.142 36.3797 316.541 36.6666 314.579 36.6666C311.71 36.6666 309.189 36.0174 307.015 34.7191C304.872 33.4208 303.196 31.5488 301.988 29.1032C300.811 26.6575 300.222 23.7137 300.222 20.2717C300.222 16.89 300.841 13.9311 302.079 11.3948C303.317 8.85861 305.008 6.88096 307.151 5.46188C309.325 4.04279 311.816 3.33325 314.624 3.33325Z" fill="white"/>
<path d="M352.26 3.96731C352.139 5.02407 352.049 6.05064 351.988 7.04702C351.958 8.04339 351.943 8.79822 351.943 9.31151C351.943 9.85499 351.958 10.3834 351.988 10.8967C352.018 11.3797 352.049 11.7874 352.079 12.1195H351.037C350.856 10.3381 350.599 8.9341 350.267 7.90752C349.935 6.85076 349.361 6.11103 348.546 5.68832C347.761 5.23542 346.569 5.00897 344.968 5.00897H341.209C340.183 5.00897 339.398 5.09955 338.854 5.28071C338.341 5.43168 337.994 5.7789 337.813 6.32238C337.631 6.83566 337.541 7.65088 337.541 8.76803V31.2318C337.541 32.3188 337.631 33.134 337.813 33.6775C337.994 34.2209 338.341 34.5832 338.854 34.7644C339.398 34.9154 340.183 34.9909 341.209 34.9909H344.515C346.418 34.9909 347.852 34.7342 348.818 34.2209C349.814 33.7076 350.524 32.8773 350.947 31.73C351.399 30.5525 351.732 28.9673 351.943 26.9746H352.985C352.894 27.7898 352.849 28.8767 352.849 30.2354C352.849 30.8091 352.864 31.6394 352.894 32.7264C352.954 33.7831 353.045 34.8852 353.166 36.0325C351.626 35.9721 349.89 35.9419 347.957 35.9419C346.025 35.9118 344.304 35.8967 342.794 35.8967C342.13 35.8967 341.27 35.8967 340.213 35.8967C339.186 35.8967 338.069 35.9118 336.861 35.9419C335.654 35.9419 334.431 35.957 333.193 35.9872C331.955 35.9872 330.777 36.0023 329.66 36.0325V35.1267C330.687 35.0663 331.457 34.9456 331.97 34.7644C332.514 34.5832 332.876 34.2209 333.057 33.6775C333.238 33.134 333.329 32.3188 333.329 31.2318V8.76803C333.329 7.65088 333.238 6.83566 333.057 6.32238C332.876 5.7789 332.514 5.41658 331.97 5.23542C331.457 5.02407 330.687 4.9033 329.66 4.87311V3.96731C330.777 3.9975 331.955 4.0277 333.193 4.05789C334.431 4.05789 335.654 4.07298 336.861 4.10318C338.069 4.10318 339.186 4.10318 340.213 4.10318C341.27 4.10318 342.13 4.10318 342.794 4.10318C344.183 4.10318 345.753 4.10318 347.505 4.10318C349.286 4.07298 350.871 4.02769 352.26 3.96731ZM344.47 19.4564C344.47 19.4564 344.47 19.6074 344.47 19.9093C344.47 20.2113 344.47 20.3622 344.47 20.3622H336.182C336.182 20.3622 336.182 20.2113 336.182 19.9093C336.182 19.6074 336.182 19.4564 336.182 19.4564H344.47ZM345.784 13.4782C345.663 15.1992 345.602 16.5126 345.602 17.4184C345.633 18.3242 345.648 19.1545 345.648 19.9093C345.648 20.6642 345.663 21.4945 345.693 22.4003C345.723 23.3061 345.799 24.6195 345.919 26.3405H344.878C344.757 25.3743 344.606 24.4383 344.425 23.5325C344.274 22.5965 343.912 21.8417 343.338 21.268C342.794 20.6642 341.858 20.3622 340.53 20.3622V19.4564C341.526 19.4564 342.281 19.2602 342.794 18.8677C343.338 18.445 343.73 17.9166 343.972 17.2825C344.213 16.6485 344.38 15.9993 344.47 15.3351C344.561 14.6406 344.651 14.0217 344.742 13.4782H345.784Z" fill="white"/>
<g clip-path="url(#clip0_285_1300)">
<path d="M17.4999 2.45874C11.0337 2.45874 5.79199 7.70049 5.79199 14.1667C5.79199 20.6329 11.0337 25.8746 17.4999 25.8746C23.9661 25.8746 29.2079 20.6329 29.2079 14.1667C29.2079 7.70049 23.9661 2.45874 17.4999 2.45874ZM20.0439 20.0223C19.9794 20.073 19.8965 20.127 19.9593 20.1882C20.0221 20.251 19.8868 20.2929 19.8868 20.3252C19.8868 20.3574 19.9706 20.5233 19.9287 20.5958C19.8868 20.6699 19.8562 20.7755 19.824 20.8375C19.7917 20.9003 19.7192 20.9632 19.7402 21.0574C19.7611 21.1509 19.6572 21.1194 19.6572 21.2137C19.6572 21.3063 19.7507 21.2652 19.7297 21.3804C19.7096 21.4964 19.6572 21.5279 19.6572 21.61C19.6572 21.6938 19.7088 21.809 19.7088 21.8404C19.7088 21.8718 19.658 21.9774 19.5847 22.0595C19.5106 22.1433 19.4599 22.1965 19.4687 22.2472C19.48 22.2996 19.5525 22.3632 19.5412 22.3954C19.5315 22.4252 19.4381 22.5308 19.4486 22.6049C19.4599 22.6774 19.5533 22.6468 19.5734 22.6975C19.5944 22.7499 19.4486 22.7926 19.5106 22.8449C19.5734 22.8965 19.658 22.8852 19.6363 23.0125C19.6202 23.1027 19.6878 23.1438 19.7378 23.172C19.0208 23.3508 18.2733 23.4564 17.5007 23.4564C12.3766 23.4572 8.20785 19.29 8.20785 14.1667C8.20785 12.4968 8.65655 10.9324 9.43069 9.57744C9.49513 9.5436 9.54105 9.52105 9.56763 9.52749C9.6208 9.53877 9.63208 9.61207 9.71585 9.63221C9.79963 9.65396 9.87294 9.57018 9.9253 9.53877C9.97685 9.50655 10.0187 9.38168 9.96557 9.39216C9.91402 9.40263 9.77788 9.39216 9.77788 9.39216C9.77788 9.39216 9.9253 9.30838 9.9253 9.25521C9.9253 9.20205 9.94544 9.11988 10.03 9.08846C10.1122 9.05624 10.1122 9.07719 10.0598 9.20285C10.0075 9.32852 10.1645 9.27535 10.2274 9.2238C10.2902 9.17224 10.3321 9.21332 10.4465 9.14002C10.5617 9.06591 10.5617 9.02402 10.6237 9.02402C10.6882 9.02402 10.8025 9.13921 10.8654 9.09652C10.9274 9.05624 11.107 9.14969 11.2118 9.14969C11.3149 9.14969 11.65 9.28663 11.7136 9.28663C11.7765 9.28663 11.965 9.35913 11.9754 9.49446C11.9859 9.63141 12.0479 9.62013 12.1108 9.62013C12.1736 9.62013 12.3202 9.67249 12.3202 9.72485C12.3202 9.77721 12.2799 9.98666 12.3847 10.039C12.4878 10.0906 12.5828 10.176 12.6247 10.1542C12.6666 10.1325 12.6247 9.96571 12.5732 9.94477C12.5208 9.92302 12.5514 9.84971 12.5313 9.80782C12.5103 9.76755 12.5941 9.76755 12.6255 9.84005C12.6561 9.91255 12.7399 10.0495 12.7923 10.0495C12.8438 10.0495 12.9598 10.1744 12.9276 10.2477C12.8954 10.3202 12.9598 10.4249 13.0533 10.4249C13.1475 10.4249 13.2627 10.5723 13.3054 10.5828C13.3473 10.5932 13.3997 10.6456 13.3997 10.677C13.3997 10.7092 13.452 10.8865 13.452 10.959C13.452 11.0315 13.4198 11.3247 13.4093 11.4399C13.3989 11.5551 13.4931 11.754 13.5978 11.8588C13.7025 11.9635 13.796 12.1625 13.8588 12.2052C13.9233 12.2454 13.9635 12.3614 14.0578 12.3502C14.152 12.3405 14.2149 12.4146 14.2995 12.5596C14.3824 12.707 14.4662 12.9463 14.529 12.968C14.5919 12.989 14.6966 13.0623 14.6434 13.1146C14.5919 13.1662 14.5081 13.2822 14.6032 13.2822C14.6966 13.2822 14.728 13.2298 14.8013 13.3249C14.8738 13.4183 14.9689 13.4699 14.9576 13.5343C14.9471 13.5964 15.0414 13.6173 15.0833 13.6278C15.1252 13.6382 15.2202 13.8267 15.3137 13.743C15.4079 13.6592 15.1888 13.5335 15.1252 13.4804C15.0623 13.4288 15.1252 13.3136 14.9785 13.1984C14.8319 13.0832 14.8529 12.9994 14.7482 12.9165C14.6434 12.8319 14.5605 12.7586 14.6644 12.6853C14.7691 12.6128 14.7796 12.7578 14.8215 12.8528C14.8634 12.9471 15.0825 13.1364 15.1759 13.2194C15.271 13.3031 15.4393 13.5964 15.4901 13.5964C15.5408 13.5964 15.6899 13.7639 15.6899 13.7639C15.6899 13.7639 15.7728 13.9009 15.7414 13.9411C15.7092 13.9838 15.7841 14.1409 15.8574 14.1828C15.9299 14.2247 16.2247 14.36 16.2666 14.3818C16.3085 14.4035 16.3915 14.559 16.5083 14.559C16.6211 14.559 16.7065 14.5711 16.7379 14.6025C16.7701 14.6347 16.8627 14.7596 16.9264 14.6871C16.9892 14.613 16.9989 14.5824 17.0939 14.5824C17.1882 14.5824 17.2293 14.6549 17.2816 14.7072C17.334 14.7596 17.4806 14.8965 17.5539 14.886C17.6264 14.8756 17.7215 14.9698 17.7738 14.9376C17.8262 14.9054 17.9092 14.9577 17.951 14.9795C17.9937 15.0004 18.1387 15.0745 18.1283 15.1986C18.1186 15.3251 18.212 15.3557 18.2757 15.3871C18.3385 15.4193 18.4223 15.4918 18.4755 15.5442C18.5278 15.5941 18.6422 15.6054 18.6744 15.6368C18.7067 15.669 18.7268 15.7311 18.821 15.6787C18.9137 15.6272 18.8935 15.5337 18.8935 15.5337C18.8935 15.5337 18.9983 15.512 19.0506 15.5539C19.1022 15.5941 19.1344 15.7311 19.1666 15.752C19.1964 15.773 19.2585 15.9292 19.2166 16.0436C19.1763 16.1604 19.186 16.274 19.1441 16.274C19.1014 16.274 19.0498 16.411 18.9862 16.4432C18.925 16.4738 18.7566 16.6204 18.7671 16.6728C18.7775 16.7243 18.8718 16.8822 18.8509 16.9547C18.8307 17.0288 18.6946 17.1126 18.7268 17.2286C18.7574 17.3438 18.9781 17.3752 18.987 17.4783C18.9983 17.5847 19.1562 17.815 19.1763 17.919C19.1964 18.0237 19.3745 18.1381 19.3745 18.2839C19.3745 18.4321 19.6258 18.5255 19.6782 18.5352C19.7289 18.5457 19.8248 18.6399 19.8973 18.6722C19.9698 18.7044 20.0342 18.7656 20.085 18.8494C20.1357 18.9332 20.1277 19.0604 20.1277 19.091C20.1277 19.1233 20.0954 19.4455 20.0648 19.634C20.0326 19.8233 20.1051 19.9699 20.0431 20.0231L20.0439 20.0223ZM13.2837 10.2895C13.3159 10.3 13.3779 10.362 13.4093 10.362C13.4415 10.362 13.5978 10.4885 13.6397 10.5312C13.6824 10.5715 13.6824 10.6875 13.6292 10.698C13.5761 10.7084 13.5455 10.5828 13.535 10.5304C13.5245 10.478 13.4198 10.478 13.3674 10.4466C13.3151 10.4144 13.1983 10.2614 13.2837 10.2895ZM26.7719 14.497C26.6559 14.6436 26.6672 14.7161 26.6148 14.7274C26.5632 14.7378 26.6672 14.7797 26.6873 14.8836C26.705 14.9739 26.6349 15.0641 26.738 15.147C26.3465 18.8687 23.7494 21.9411 20.2807 23.031C20.2751 23.023 20.2646 23.0109 20.2646 23.0036C20.242 22.9408 20.242 22.8159 20.3154 22.774C20.3879 22.7313 20.5667 22.5864 20.6078 22.5549C20.6497 22.5227 20.7125 22.3777 20.6803 22.356C20.6505 22.335 20.495 22.356 20.4708 22.3237C20.4507 22.2931 20.4507 22.2512 20.5554 22.1787C20.6601 22.1046 20.7125 21.9991 20.7544 21.9693C20.7963 21.9371 20.8792 21.8742 20.9115 21.8001C20.9421 21.7276 20.8792 21.7679 20.8164 21.7679C20.7536 21.7679 20.7222 21.6559 20.7222 21.602C20.7222 21.548 20.8792 21.6229 20.996 21.6439C21.1104 21.6632 21.0573 21.5915 21.0468 21.5295C21.0363 21.4666 21.0677 21.3603 21.1314 21.3925C21.1926 21.4247 21.518 21.382 21.5583 21.3716C21.601 21.3611 21.7154 21.1734 21.7573 21.1202C21.8 21.0679 21.8089 21.0155 21.7573 20.9849C21.7049 20.9527 21.6421 20.8367 21.622 20.8077C21.5968 20.7185 21.5932 20.6246 21.6115 20.5338C21.6316 20.4822 21.6115 20.8367 21.7565 20.8802C21.9047 20.9205 21.9877 20.9422 22.1238 20.8157C22.2608 20.6917 22.3639 20.6063 22.3752 20.5241C22.3856 20.4404 22.417 20.355 22.4694 20.326C22.521 20.2937 22.5524 20.4089 22.6144 20.2736C22.6789 20.1367 22.7409 20.1479 22.8037 20.0335C22.8657 19.9175 22.699 19.7717 22.823 19.6872C22.9487 19.6042 23.1694 19.4995 23.1694 19.4995C23.1694 19.4995 23.2315 19.4672 23.3571 19.435C23.482 19.4052 23.6181 19.4245 23.66 19.3625C23.7003 19.2997 23.743 19.1644 23.805 19.091C23.8695 19.0169 23.942 18.9025 23.9097 18.8494C23.8791 18.7978 23.9943 18.5674 23.9839 18.5046C23.9734 18.4418 23.8791 18.2952 24.0362 18.1695C24.1933 18.0438 24.36 17.8537 24.3713 17.803C24.381 17.7506 24.5083 17.5307 24.4954 17.4244C24.4857 17.3212 24.3713 17.1956 24.298 17.1634C24.2239 17.1344 24.0676 17.1231 24.0048 17.0401C23.942 16.9571 23.7631 16.8725 23.7011 16.8935C23.6399 16.9144 23.5344 16.9338 23.4514 16.8814C23.3668 16.8307 23.2315 16.7662 23.1791 16.7251C23.1259 16.6849 22.9906 16.6526 22.9278 16.6526C22.8649 16.6526 22.8754 16.6099 22.7812 16.7356C22.6869 16.8613 22.7812 16.9032 22.6136 16.8806C22.4444 16.8621 22.6337 16.8508 22.7296 16.7251C22.8222 16.6003 22.7183 16.5262 22.6136 16.5584C22.5089 16.5906 22.5814 16.6526 22.4146 16.684C22.2479 16.7147 22.2479 16.6099 22.3526 16.5898C22.4573 16.568 22.645 16.4738 22.645 16.4327C22.645 16.39 22.6233 16.2748 22.5403 16.2748C22.4573 16.2748 22.4759 16.1701 22.3518 16.0348C22.2261 15.8978 22.0699 15.814 21.9426 15.8334C21.8185 15.8551 21.7235 15.8865 21.6606 15.773C21.5978 15.657 21.5237 15.636 21.4818 15.574C21.4415 15.5112 21.3352 15.574 21.3046 15.5418C21.274 15.5095 21.2724 15.5112 21.2724 15.5112C21.2724 15.5112 21.1354 15.5434 21.2103 15.4483C21.2828 15.3541 21.3134 15.176 21.2828 15.1865C21.2506 15.1962 21.1982 15.3436 21.1459 15.3331C21.0951 15.3227 21.1354 15.3009 21.0307 15.2389C20.926 15.176 20.7592 15.2284 20.7592 15.2808C20.7592 15.3331 20.7069 15.375 20.7069 15.375C20.7069 15.375 20.6746 15.3444 20.644 15.2808C20.6118 15.2179 20.4668 15.2083 20.3927 15.2703C20.3202 15.3331 20.2783 15.1124 20.2259 15.1124C20.1736 15.1124 20.0697 15.1648 20.0165 15.2606C19.9649 15.3541 19.9859 15.4902 19.9424 15.4797C19.9021 15.4693 19.8916 15.292 19.9021 15.2284C19.9118 15.164 20.027 15.0609 19.9424 15.0399C19.8594 15.019 19.7329 15.1446 19.6822 15.1551C19.5943 15.1894 19.518 15.2481 19.4623 15.3243C19.4002 15.4072 19.3688 15.4596 19.3052 15.491C19.2432 15.5232 19.1497 15.491 19.1707 15.4588C19.1908 15.4282 18.9918 15.3138 18.9612 15.3541C18.929 15.3968 18.8355 15.4282 18.7413 15.4709C18.647 15.5128 18.5625 15.4185 18.5423 15.3766C18.5222 15.3347 18.4779 15.3251 18.4698 15.1881C18.4585 15.0536 18.4908 14.9062 18.5214 14.8232C18.552 14.7394 18.3643 14.5719 18.291 14.5815C18.2185 14.5936 18.1444 14.6661 18.0719 14.654C17.9978 14.646 18.03 14.6242 17.9148 14.6242C17.7988 14.6242 17.893 14.6041 17.9148 14.509C17.9341 14.4156 17.8721 14.2891 17.9873 14.2054C18.1025 14.1216 18.0614 13.9234 17.9873 13.9129C17.9148 13.9017 17.7779 13.9452 17.6844 13.9339C17.6629 13.9306 17.6409 13.9331 17.6206 13.9409C17.6003 13.9487 17.5824 13.9616 17.5686 13.9784C17.5548 13.9952 17.5456 14.0153 17.5419 14.0367C17.5382 14.0581 17.5401 14.0802 17.5475 14.1006C17.5797 14.1949 17.4959 14.2577 17.4645 14.248C17.4339 14.2376 17.392 14.1852 17.2768 14.269C17.1624 14.3512 17.1205 14.3197 17.0053 14.2263C16.8901 14.1312 16.7637 14.0378 16.7435 13.8912C16.7226 13.7462 16.7113 13.5988 16.754 13.515C16.7943 13.4312 16.7943 13.2854 16.733 13.2637C16.6702 13.2443 16.8055 13.1396 16.878 13.1187C16.9614 13.0874 17.0341 13.0329 17.0875 12.9616C17.1092 12.9197 17.214 12.9294 17.3292 12.9294C17.4435 12.9294 17.4645 12.9294 17.5789 12.9922C17.6949 13.055 17.7158 12.96 17.7158 12.9294C17.7158 12.8971 17.7577 12.8351 17.8834 12.8456C18.009 12.8569 18.1863 12.8053 18.2185 12.8359C18.2507 12.8665 18.3119 12.993 18.3748 12.9511C18.4392 12.9108 18.4585 12.8367 18.4795 12.9632C18.5004 13.088 18.552 13.2774 18.6487 13.3096C18.7413 13.3402 18.6889 13.465 18.7832 13.4755C18.8758 13.4868 18.9201 13.2782 18.8879 13.2049C18.8557 13.1324 18.7937 12.9124 18.7413 12.8601C18.6897 12.8077 18.6897 12.6716 18.7929 12.6297C18.8976 12.5878 19.1473 12.3784 19.2198 12.3155C19.2947 12.2527 19.4937 12.2003 19.4309 12.1165C19.368 12.0328 19.3471 11.9812 19.3471 11.9176C19.3471 11.8539 19.4099 11.8757 19.4413 11.9176C19.4727 11.9595 19.5976 11.8547 19.5662 11.8024C19.5356 11.7508 19.5452 11.6775 19.6185 11.6872C19.691 11.6977 19.712 11.6348 19.6814 11.5929C19.6492 11.551 19.7539 11.4987 19.828 11.5204C19.9021 11.5406 20.0898 11.5092 20.1212 11.4673C20.151 11.4254 20.0568 11.3835 20.0568 11.2997C20.0568 11.2151 20.1824 11.1418 20.2565 11.1305C20.329 11.1209 20.4233 11.1305 20.4338 11.0999C20.4442 11.0677 20.5498 10.9847 20.5594 11.058C20.5707 11.1305 20.5594 11.257 20.6432 11.257C20.727 11.257 20.8301 11.1628 20.8623 11.1523C20.8929 11.1426 21.0927 11.1007 21.1346 11.0903C21.1765 11.0798 21.427 11.058 21.3964 10.9855C21.3642 10.913 21.3336 10.8405 21.3014 10.8083C21.2691 10.7761 21.2393 10.8188 21.1966 10.8712C21.1564 10.9235 21.0814 10.9235 21.0613 10.8816C21.0404 10.8414 21.071 10.7157 20.9985 10.7568C20.9235 10.7987 20.9139 10.8405 20.8712 10.8196C20.8293 10.7987 20.7882 10.7254 20.7882 10.7254C20.7882 10.7254 20.8913 10.6738 20.818 10.5787C20.7455 10.4845 20.6408 10.5062 20.5361 10.5586C20.4314 10.6094 20.441 10.5989 20.3162 10.6311C20.1913 10.6633 20.1277 10.6931 20.1277 10.6931C20.1277 10.6931 20.2968 10.5884 20.3693 10.5256C20.4418 10.4611 20.5369 10.4305 20.5989 10.3677C20.6617 10.3049 20.8285 10.3999 20.8285 10.3999C20.8285 10.3999 20.9131 10.3153 20.9131 10.3677C20.9131 10.42 20.8913 10.5562 20.9534 10.5562C21.0178 10.5562 21.195 10.4724 21.1225 10.4515C21.0484 10.4297 21.2272 10.4515 21.2997 10.3983C21.3739 10.3459 21.456 10.3459 21.4987 10.3258C21.5406 10.3049 21.5728 10.2106 21.6453 10.2106C21.7194 10.2106 21.75 10.304 21.6453 10.3669C21.5406 10.4297 21.5301 10.5868 21.4778 10.6287C21.4262 10.669 21.4568 10.7221 21.5406 10.7117C21.6244 10.7012 21.6969 10.7221 21.771 10.7012C21.8451 10.6802 21.8862 10.7221 21.9063 10.7535C21.9273 10.7858 21.9901 10.7213 21.9901 10.7213C21.9901 10.7213 22.127 10.6907 22.1673 10.7431C22.2108 10.7946 22.2422 10.7109 22.2108 10.6593C22.1786 10.6077 22.1367 10.5546 22.1061 10.4917C22.0739 10.4289 22.0336 10.408 21.9498 10.4289C21.866 10.4499 21.8451 10.408 21.7927 10.3774C21.7404 10.3451 21.6977 10.4192 21.7404 10.3451C21.7831 10.2726 21.8032 10.2509 21.8346 10.188C21.8652 10.1252 22.0022 10.0108 21.8652 9.9786C21.7283 9.94638 21.6864 9.92705 21.6663 9.86421C21.6461 9.80219 21.489 9.68699 21.4488 9.68699C21.4053 9.68699 21.2603 9.68699 21.249 9.63463C21.2385 9.58227 21.1338 9.46707 21.0814 9.41471C21.0299 9.36235 20.8301 9.13277 20.7995 9.11102C20.7673 9.09007 20.7254 9.10055 20.6303 9.22621C20.5377 9.35268 20.4531 9.37363 20.3806 9.34221C20.3065 9.30999 20.296 9.32127 20.2243 9.23749C20.1494 9.15371 20.2968 9.14324 20.2646 9.09088C20.2324 9.03932 20.0664 9.01838 19.9617 9.0071C19.857 8.99663 19.7845 8.88143 19.6266 8.87016C19.4703 8.86049 19.2818 8.89191 19.2295 8.89191C19.1779 8.89191 19.1779 8.96441 19.157 9.08041C19.1352 9.1956 19.2295 9.22702 19.1352 9.24796C19.0418 9.26891 18.9983 9.28019 19.0933 9.32046C19.1876 9.36316 19.3132 9.52991 19.3132 9.52991C19.3132 9.52991 19.3132 9.62496 19.2383 9.67732C19.1658 9.72968 19.0917 9.78205 19.0506 9.72002C19.0079 9.65718 18.8935 9.66846 18.9258 9.7313C18.9556 9.79413 19.0184 9.82555 19.0184 9.88838C19.0184 9.9496 19.1127 10.1059 19.0506 10.159C18.9862 10.2114 18.9137 10.1703 18.8621 10.18C18.8106 10.1897 18.7574 10.0962 18.8001 10.0753C18.8404 10.0543 18.7888 9.89805 18.7888 9.89805C18.7888 9.89805 18.6632 10.0753 18.6728 9.98102C18.6841 9.88677 18.6213 9.8763 18.6213 9.8038C18.6213 9.72968 18.5568 9.69907 18.465 9.71921C18.3699 9.74016 18.2555 9.68699 18.0767 9.65477C17.9379 9.63756 17.8033 9.59525 17.6796 9.52991C17.533 9.45741 17.4806 9.50896 17.4073 9.51943C17.3348 9.52991 17.3654 9.37282 17.2704 9.35268C17.1777 9.33093 17.1254 9.37282 17.1044 9.23668C17.0827 9.10216 17.135 9.06993 17.3646 8.92252C17.595 8.77752 17.5636 8.71307 17.7416 8.69293C17.9188 8.67199 18.0042 8.71388 18.0042 8.66071C18.0042 8.60755 18.0461 8.39971 18.0461 8.50443C18.0461 8.60916 18.2572 8.61721 18.1621 8.68971C18.0687 8.76221 18.1202 8.77349 18.1943 8.77349C18.2668 8.77349 18.4038 8.70099 18.4038 8.70099C18.4038 8.70099 18.5705 8.62688 18.6132 8.68971C18.6551 8.75255 18.6551 8.81538 18.7284 8.81538C18.8017 8.81538 18.958 8.7316 18.8219 8.6583C18.6873 8.58579 18.6044 8.59627 18.5198 8.5133C18.4352 8.43032 18.4569 8.46013 18.3627 8.48107C18.2692 8.50202 18.2692 8.44885 18.237 8.44885C18.2048 8.44885 18.1532 8.4706 18.1323 8.42871C18.1122 8.38682 18.1436 8.37635 18.2491 8.37635C18.3522 8.37635 18.4779 8.40857 18.4779 8.40857L18.6342 8.35541C18.6664 8.34493 18.8331 8.32318 18.8017 8.23055C18.7695 8.13549 18.6648 8.13549 18.6342 8.10407C18.6035 8.07266 18.697 8.03157 18.7494 8.00982C18.8025 7.98888 18.9491 8.00982 18.9491 8.00982C18.9491 8.00982 19.0434 8.0203 19.0434 7.9776C19.0434 7.93491 19.0208 7.88416 19.0837 7.91557C19.1465 7.94699 19.0837 8.04043 19.1787 8.0203C19.2722 7.99855 19.2939 8.0203 19.3455 8.05091C19.3978 8.08313 19.335 8.20799 19.2834 8.22813C19.2311 8.24907 19.1465 8.29096 19.2625 8.30063C19.3785 8.31271 19.4607 8.31271 19.4607 8.31271C19.4607 8.31271 19.5348 8.24021 19.5654 8.17577C19.5976 8.11374 19.65 8.15563 19.691 8.17577C19.7313 8.19671 19.8892 8.22893 19.7426 8.27082C19.5952 8.31352 19.5654 8.36588 19.5332 8.41824C19.5025 8.4706 19.4905 8.50202 19.3559 8.4706C19.219 8.43838 19.1465 8.44966 19.1143 8.50282C19.082 8.55357 19.1038 8.72193 19.157 8.70099C19.2077 8.68005 19.2617 8.68005 19.3237 8.6591C19.3865 8.63816 19.6379 8.68004 19.6999 8.66957C19.7644 8.6591 19.8691 8.77429 19.9013 8.75335C19.9319 8.7316 19.9947 8.79363 20.0568 8.83632C20.1196 8.87821 20.0987 8.74207 20.213 8.82585C20.329 8.90963 20.2654 8.90963 20.329 8.90963C20.3911 8.90963 20.528 8.9201 20.528 8.9201C20.528 8.9201 20.5393 8.81538 20.644 8.83632C20.7487 8.85727 20.8422 8.97327 20.8317 8.88788C20.822 8.80491 20.8422 8.74288 20.7592 8.67843C20.6754 8.61641 20.5401 8.57371 20.5175 8.5431C20.4974 8.51088 20.4773 8.46899 20.5079 8.44805C20.5401 8.42791 20.6867 8.45852 20.7697 8.51249C20.8535 8.56405 20.9268 8.61721 20.9896 8.57452C21.0516 8.53182 21.1265 8.51007 21.1572 8.47946C21.1878 8.44724 21.2619 8.3538 21.2619 8.3538C21.2619 8.3538 20.9477 8.31352 20.9074 8.25955C20.8639 8.20638 20.7173 8.13307 20.6754 8.13307C20.6335 8.13307 20.5192 8.20557 20.4773 8.10085C20.4354 7.99613 20.4354 7.87127 20.3927 7.8608C20.3524 7.85032 19.9118 7.7883 19.8497 7.75607C19.7869 7.72385 19.5356 7.65135 19.4413 7.59899C19.3471 7.54663 19.2109 7.47332 19.1272 7.47332C19.0442 7.47332 18.6986 7.51521 18.6358 7.50555C18.5729 7.49427 18.3844 7.52568 18.3111 7.53616C18.2386 7.54663 18.4054 7.68277 18.2491 7.71338C18.092 7.7456 18.1122 7.76655 18.1444 7.60866C18.175 7.45238 18.0397 7.41049 17.9027 7.47332C17.7674 7.53616 17.5483 7.57804 17.5998 7.65055C17.6522 7.72466 17.5902 7.77782 17.6941 7.85032C17.7988 7.92282 17.8415 7.94457 17.976 7.9341C18.113 7.92363 18.2499 7.95424 18.2499 7.95424C18.2499 7.95424 18.2499 8.08152 18.1975 8.10166C18.1452 8.1226 18.0606 8.1226 18.0397 8.18543C18.0195 8.24827 17.9148 8.27968 17.9148 8.24827C17.9148 8.21685 17.968 8.11132 17.8947 8.05977C17.8222 8.00821 17.8004 7.99774 17.7174 8.0501C17.6329 8.10246 17.6232 8.1226 17.5805 8.03963C17.5386 7.95585 17.4129 7.88255 17.4129 7.88255C17.4129 7.88255 17.3292 7.77782 17.2663 7.72627C17.2043 7.67391 17.0891 7.68438 17.0778 7.73674C17.0682 7.78749 17.0996 7.83985 17.1423 7.93491C17.1825 8.02916 17.2252 8.20638 17.1519 8.21685C17.0794 8.22813 17.0682 8.2386 16.9949 8.25955C16.9224 8.27968 16.8901 8.22732 16.8901 8.14355C16.8901 8.05977 16.8579 7.98646 16.8797 7.95504C16.9006 7.92282 16.7959 7.97679 16.6912 7.95504C16.5864 7.93491 16.5035 7.99693 16.6074 8.02916C16.7121 8.06138 16.7339 8.18543 16.6396 8.21685C16.5445 8.24907 16.1885 8.21685 16.0733 8.21685C15.9581 8.21685 15.7914 8.24907 15.7591 8.18463C15.7269 8.1226 15.8542 8.08152 15.9267 8.08152C16.0008 8.08152 16.2199 8.08957 16.3037 7.9768C16.3875 7.8608 16.199 7.83985 16.116 7.83985C16.0322 7.83985 15.9686 7.80763 15.8743 7.71499C15.7801 7.62074 15.9388 7.55791 15.917 7.51602C15.8961 7.47413 15.7914 7.50474 15.6979 7.50474C15.6037 7.50474 15.4562 7.43224 15.4562 7.51602C15.4562 7.5998 15.5722 7.83985 15.4989 7.78749C15.4248 7.73593 15.4345 7.66182 15.3829 7.59899C15.3306 7.53696 15.2476 7.54743 15.1413 7.55871C15.0382 7.56838 14.8593 7.59899 14.8078 7.58932C14.7562 7.57885 14.7973 7.57885 14.6821 7.52649C14.5677 7.47413 14.5145 7.4846 14.4308 7.43224C14.3478 7.37827 14.4211 7.35813 14.2745 7.34766C14.1295 7.33718 14.1392 7.42016 13.9925 7.40002C13.8459 7.37907 13.804 7.41049 13.6574 7.40002C13.5108 7.38955 13.4383 7.37907 13.4158 7.45238C13.3964 7.52488 13.3537 7.65135 13.2909 7.65135C13.2281 7.65135 13.154 7.72385 13.3529 7.73513C13.5519 7.7448 13.4375 7.83824 13.6147 7.82857C13.792 7.8181 13.9499 7.8181 13.9917 7.73432C14.0336 7.64974 14.0642 7.64974 14.086 7.68116C14.1061 7.71338 14.2632 7.90027 14.2632 7.90027C14.2632 7.90027 14.3679 7.98405 14.4106 8.00499C14.4509 8.02593 14.3687 8.12018 14.285 8.06782C14.2012 8.01546 14.0433 8.02754 13.9813 7.97438C13.9184 7.92202 13.6349 7.92202 13.5624 7.93249C13.4899 7.94296 13.3634 7.90027 13.3207 7.90027C13.2804 7.90027 13.1435 8.00499 13.1435 8.00499C13.1435 8.00499 13.0911 7.92121 13.0605 7.87932C13.0283 7.83743 12.9767 7.92121 12.9349 7.93168C12.893 7.94216 12.7673 7.84791 12.6416 7.8898C12.516 7.93168 12.5579 7.97357 12.3798 7.9623C12.2018 7.95102 12.1599 7.92202 12.0979 7.93168L12.0334 7.94216C12.0334 7.94216 12.0439 7.98405 11.9714 8.02593C11.8989 8.06782 11.8449 8.12018 11.7926 8.05816C11.7418 7.99371 11.7104 7.99371 11.6798 7.98405C11.6476 7.97357 11.5831 7.92121 11.4486 7.95182C11.3117 7.98405 11.1022 7.91155 11.0619 7.91155C11.0297 7.91155 10.8098 7.89866 10.6672 7.88416C12.3685 6.04185 14.7973 4.87541 17.4999 4.87541C19.2142 4.87541 20.8164 5.35068 22.1963 6.16268C22.1482 6.18693 22.0957 6.20108 22.042 6.20426C21.9882 6.20745 21.9344 6.19961 21.8838 6.18121C21.8209 6.14657 21.7565 6.11838 21.5011 6.13288C21.2458 6.14657 20.9654 6.22955 21.0218 6.31413C21.0798 6.39791 20.9074 6.44705 20.8631 6.40516C20.8188 6.36327 20.6134 6.45349 20.6271 6.53807C20.64 6.62185 20.5949 6.71932 20.4861 6.69918C20.3782 6.67663 20.3009 6.74752 20.2952 6.81599C20.2896 6.88607 20.0455 6.93441 20.0278 6.93441C20.0084 6.93441 19.6959 6.92796 19.8103 7.01093C19.8884 7.06732 19.9311 7.03268 20.0278 7.05282C20.1244 7.07296 20.2002 7.22682 20.2509 7.24777C20.3009 7.26871 20.3717 7.24777 20.404 7.20588C20.4362 7.16399 20.4797 7.01738 20.4797 7.01738C20.4797 7.01738 20.4797 7.15674 20.557 7.18493C20.6335 7.21313 20.8229 7.16399 20.8752 7.17124C20.9276 7.17768 21.228 7.21957 21.3102 7.26146C21.3932 7.30174 21.5962 7.33074 21.6542 7.42096C21.7106 7.51199 21.7186 7.82616 21.7509 7.8608C21.7831 7.89543 21.8902 7.74802 21.9152 7.71418C21.941 7.67874 22.0763 7.69968 22.1206 7.74802C22.1657 7.79635 22.2672 7.91557 22.2616 7.96552C22.2535 8.01385 22.235 8.09038 22.1971 8.06218C22.1585 8.0356 22.0948 8.04285 22.1198 7.98646C22.1456 7.93007 22.1585 7.81166 22.1077 7.81166H22.011C22.011 7.81166 21.9144 7.78346 21.8499 7.88818C21.7855 7.99291 21.8387 8.09763 21.8822 8.09763C21.9257 8.09763 22.0312 8.09763 22.0312 8.12502C22.0312 8.15321 21.9216 8.23779 21.9281 8.28613C21.9361 8.33446 22.0167 8.50202 22.0441 8.53746C22.0699 8.5721 22.2036 8.60674 22.2414 8.6148C22.2817 8.62124 22.1528 8.62849 22.185 8.67682C22.2173 8.72516 22.2672 8.84438 22.3381 8.87257C22.4074 8.90077 22.6055 9.02563 22.6297 9.08202C22.6555 9.13841 22.8085 9.04013 22.8408 9.03368C22.873 9.02563 22.8649 9.17868 22.9552 9.18674C23.0438 9.19318 23.076 9.17224 23.1525 9.10941C23.229 9.04657 23.2105 8.9628 23.217 8.89996C23.2234 8.83713 23.217 8.7888 23.2999 8.80893C23.3837 8.83068 23.4272 8.79524 23.4208 8.72596C23.4143 8.65588 23.3442 8.57291 23.4772 8.55116C23.6117 8.53021 23.6818 8.43999 23.7647 8.43999C23.8477 8.43999 24.0789 8.47463 24.1031 8.43999C24.1272 8.40535 24.2368 8.24424 24.3069 8.2386C24.3609 8.23216 24.4873 8.22088 24.617 8.20396C25.9297 9.76891 26.6869 11.7246 26.7703 13.7655C26.6752 13.8944 26.7606 14.0112 26.7864 14.0942C26.788 14.1184 26.7912 14.1409 26.7912 14.1651C26.7912 14.2746 26.7783 14.3826 26.7751 14.4905L26.7719 14.4954V14.497ZM18.9451 11.0121C18.8935 11.0226 18.8082 10.9702 18.8082 10.8969C18.8082 10.8236 18.7357 11.0339 18.7759 11.0967C18.8194 11.1595 18.693 11.2337 18.6519 11.2337C18.6108 11.2337 18.5794 11.1394 18.589 11.0452C18.6003 10.9509 18.527 10.8679 18.4118 10.8776C18.2958 10.8889 18.2427 10.9823 18.2024 11.0145C18.1597 11.0452 18.1597 11.2224 18.1702 11.2643C18.1806 11.3062 18.1806 11.4544 18.0767 11.4431C17.9817 11.4326 18.0026 11.2554 18.0123 11.1918C18.0244 11.1289 17.9817 10.9719 18.0244 10.8889C18.0679 10.8051 18.1919 10.7737 18.2765 10.7632C18.3611 10.7527 18.5375 10.8156 18.5689 10.8051C18.6011 10.7938 18.7477 10.7938 18.8202 10.8051C18.8927 10.8132 18.9975 11.0025 18.9459 11.0129L18.9451 11.0121ZM19.1328 11.0444C19.165 11.0645 19.3825 11.0121 19.426 11.0645C19.4679 11.116 19.3833 11.1265 19.2794 11.1692C19.1747 11.2095 19.1425 11.1998 19.1022 11.2522C19.0619 11.3045 18.9234 11.3247 18.8605 11.3875C18.7977 11.452 18.6857 11.489 18.6624 11.4407C18.6301 11.3779 18.6728 11.4085 18.6825 11.3779C18.693 11.3456 18.8799 11.2731 18.8799 11.2731C18.8799 11.2731 19.1022 11.0234 19.1336 11.0435L19.1328 11.0444ZM18.295 10.677C18.2652 10.6875 18.15 10.6561 18.0534 10.6561C17.9607 10.6561 17.9809 10.5932 17.939 10.6045C17.8987 10.615 17.8036 10.6367 17.74 10.6674C17.6772 10.6996 17.5724 10.6915 17.5724 10.6351C17.5724 10.5514 17.6143 10.5723 17.7497 10.5199C17.8866 10.4676 18.034 10.321 18.096 10.383C18.1589 10.4474 18.2733 10.5199 18.3474 10.5304C18.4215 10.5417 18.3256 10.6674 18.295 10.677ZM17.2252 7.43063C17.1608 7.45077 16.9449 7.5418 16.9659 7.59013C16.9739 7.60866 17.0287 7.64652 17.1189 7.63202C17.2099 7.61752 17.3412 7.60382 17.4049 7.59738C17.4677 7.58932 17.4814 7.4846 17.4129 7.47896C17.342 7.47091 17.2873 7.40888 17.2252 7.43063ZM16.4503 7.5136C16.402 7.53535 16.2545 7.47977 16.178 7.52971C16.1297 7.55952 16.1571 7.66102 16.2344 7.66666C16.3109 7.67471 16.4439 7.61832 16.4567 7.66102C16.4712 7.70291 16.5196 7.89141 16.6452 7.82857C16.7709 7.76655 16.7637 7.71096 16.7983 7.70371C16.8329 7.69566 16.7919 7.5426 16.7355 7.50796C16.6791 7.47332 16.4986 7.49427 16.4503 7.51602V7.5136ZM16.1982 6.92152C16.2119 6.95696 16.1917 6.98435 16.2892 6.99804C16.3859 7.01255 16.4285 7.02624 16.4849 7.02624C16.5413 7.02624 16.5196 6.93521 16.4712 6.87318C16.4229 6.81035 16.4366 6.8168 16.3101 6.78216C16.2011 6.75393 16.0881 6.7444 15.9758 6.75396C15.892 6.76202 15.801 6.74027 15.7801 6.83774C15.7696 6.88849 15.8365 6.92877 15.9202 6.92877C16.004 6.92877 16.1845 6.88768 16.1982 6.92152ZM16.3802 7.30496C16.4157 7.3823 16.4157 7.34685 16.5139 7.35491C16.6106 7.36296 16.6871 7.25824 16.6944 7.2228C16.7024 7.18735 16.646 7.11807 16.5131 7.13177C16.3802 7.14546 15.9758 7.11082 15.9202 7.15916C15.8663 7.20507 15.9202 7.34605 15.8985 7.36055C15.8775 7.37424 15.9065 7.43707 15.9605 7.42338C16.0169 7.40968 16.0443 7.27677 16.087 7.27677C16.1289 7.27677 16.3448 7.22843 16.3802 7.30496ZM15.0688 7.0198C15.1107 7.05443 15.2162 7.02624 15.2081 6.9916C15.2017 6.95777 15.2508 6.8176 15.1679 6.81116C15.0833 6.80471 14.9665 6.88849 14.8392 6.93038C14.7586 6.95696 14.7764 7.0351 14.8311 7.0351C14.8859 7.0351 15.0277 6.98596 15.0688 7.0198ZM15.6633 7.14546C15.5932 7.1801 15.5714 7.20185 15.5102 7.18735C15.4458 7.17366 15.4458 7.06168 15.3346 7.08263C15.2234 7.10357 15.2025 7.16641 15.1679 7.19541C15.1332 7.22441 15.0551 7.24374 15.0285 7.22924C15.0011 7.21555 14.84 7.12452 14.84 7.12452C14.84 7.12452 14.5049 7.11082 14.4912 7.06813C14.4775 7.02785 14.4219 6.95777 14.268 6.97146C14.1142 6.98516 13.8492 7.07618 13.8073 7.07618C13.7654 7.07618 13.8572 7.15996 13.7992 7.15996C13.7444 7.15996 13.6752 7.15352 13.6542 7.21635C13.6397 7.25824 13.717 7.25663 13.8073 7.25663C13.8959 7.25663 14.0441 7.25663 14.086 7.23649C14.1279 7.21555 14.3373 7.16641 14.3301 7.22843C14.322 7.29288 14.4139 7.38955 14.4622 7.37585C14.5105 7.36216 14.6088 7.27113 14.6571 7.30657C14.7055 7.34121 14.7135 7.42418 14.7619 7.44593C14.8102 7.46607 14.9439 7.46607 15.0067 7.44593C15.0688 7.42418 15.2436 7.42418 15.3209 7.43788C15.3966 7.45399 15.6206 7.49427 15.6415 7.45399C15.6625 7.41049 15.7253 7.40405 15.7317 7.36216C15.7382 7.32027 15.772 7.18896 15.772 7.18896C15.772 7.18896 15.7317 7.11163 15.6625 7.14627L15.6633 7.14546ZM19.1956 14.3608C19.099 14.3769 19.1231 14.5622 19.2375 14.53C19.3527 14.4954 19.2907 14.3423 19.1956 14.3608ZM20.1059 14.1111C20.0221 14.0894 19.9287 14.1111 19.8642 14.1208C19.8022 14.1312 19.6242 14.2883 19.6242 14.2883C19.6242 14.2883 19.7394 14.3093 19.8119 14.3093C19.886 14.3093 19.9279 14.3495 19.9891 14.3818C20.0535 14.414 20.1679 14.3399 20.209 14.3399C20.2517 14.3399 20.3041 14.4655 20.3137 14.3294C20.3258 14.1941 20.1897 14.1312 20.1059 14.1111ZM17.1898 7.32591C17.156 7.24213 16.982 7.21313 16.9457 7.29771C16.9151 7.37021 17.2244 7.41049 17.1898 7.32591ZM19.186 13.5972C19.3012 13.5762 19.2375 13.4812 19.1433 13.4924C19.0482 13.5029 19.0708 13.6181 19.186 13.5972ZM20.5772 14.244C20.4805 14.2617 20.503 14.4478 20.6174 14.4132C20.7342 14.381 20.6714 14.2279 20.5772 14.244ZM19.31 13.9323C19.2375 13.9427 19.0804 13.8598 18.9959 13.7857C18.9129 13.7132 18.7558 13.7132 18.693 13.7132C18.6317 13.7132 18.3788 13.7857 18.3788 13.7857C18.3691 13.8904 18.4739 13.8582 18.5995 13.8582C18.7252 13.8582 18.9459 13.838 18.9862 13.8904C19.0281 13.9419 19.2158 14.0257 19.2681 14.0676C19.3205 14.1103 19.488 14.1208 19.4985 14.0789C19.509 14.037 19.3833 13.9218 19.31 13.9323ZM18.0614 7.24938C17.9567 7.24132 17.8246 7.24132 17.7408 7.24938C17.6562 7.25582 17.5934 7.19299 17.5314 7.15835C17.4685 7.12291 17.3284 7.01093 17.2454 6.99724C17.1616 6.98355 17.1761 6.98355 17.0013 6.94085C16.9127 6.91991 16.7645 6.89252 16.7645 6.87238C16.7645 6.85143 16.7226 6.96905 16.7991 7.0053C16.8764 7.03993 17.0021 7.10196 17.0923 7.13741C17.1842 7.17205 17.3582 7.1793 17.4145 7.25018C17.4693 7.31866 17.6578 7.37505 17.6578 7.37505L17.881 7.39518C17.881 7.39518 18.034 7.36055 18.1951 7.37424C18.3562 7.38713 18.5923 7.40807 18.7268 7.40163C18.8573 7.39518 18.8782 7.3533 18.8935 7.3251C18.9064 7.2961 18.6487 7.24052 18.585 7.24777C18.5238 7.2526 18.1661 7.2526 18.0614 7.24616V7.24938ZM18.4521 8.85404C18.4247 8.88627 18.5786 8.93057 18.6052 8.88868C18.6334 8.84841 18.5246 8.77752 18.4521 8.85404ZM18.9209 8.99905C18.9902 8.97166 18.9556 8.88788 18.8565 8.91607C18.7461 8.9483 18.85 9.02885 18.9209 9.00066V8.99905Z" fill="white"/>
<path fill-rule="evenodd" clip-rule="evenodd" d="M19.8914 15.7435C19.9573 15.6634 20.0374 15.5574 20.0233 15.5174C20.0233 15.4773 19.9032 15.3973 19.8231 15.3714C19.8145 15.3682 19.805 15.3645 19.7944 15.3603C19.6243 15.2939 19.1789 15.12 18.026 15.3572C16.7989 15.6116 15.2656 15.9696 15.1596 15.9979C15.1439 16.0016 15.1268 16.0074 15.1082 16.0136C14.9996 16.0503 14.8427 16.1031 14.6273 15.8636C14.373 15.5833 11.1745 11.6665 11.1745 11.6665L10.76 11.7442L12.3733 16.6102C12.3733 16.6102 9.49519 17.2509 9.22904 17.371L7.77584 15.8777L7.41548 15.9979L8.28222 17.769C8.28222 17.769 7.936 17.9834 7.88182 18.0234C7.85592 18.0352 7.84178 18.0517 7.84178 18.0752C7.85592 18.1153 7.88418 18.1153 7.90773 18.1153C7.97368 18.1294 8.37408 18.1953 8.37408 18.1953L8.29636 20.1691L8.66849 20.129L9.40098 18.1836C9.69539 18.1836 12.5877 17.6089 12.5877 17.6089L13.054 22.701L13.4662 22.6068C13.9527 20.8647 14.4418 19.1234 14.9335 17.3828C15.0389 17.0667 15.215 17.0587 15.3281 17.0535C15.344 17.0528 15.3586 17.0521 15.3716 17.0507C15.406 17.0417 15.585 17.0076 15.8525 16.9567C16.4288 16.8471 17.4157 16.6594 18.2521 16.476C19.4225 16.2216 19.7562 15.8813 19.876 15.7591C19.8816 15.7534 19.8867 15.7482 19.8914 15.7435ZM-1.43421 22.275H-2.50003C-2.49871 22.2652 -2.49698 22.2554 -2.49484 22.2456C-2.4746 22.1532 -2.41907 22.0724 -2.34009 22.0203C-1.80779 21.6741 -1.26137 21.342 -0.714944 21.0358C-0.674862 21.0124 -0.630513 20.9973 -0.584498 20.9912C-0.538482 20.9852 -0.491724 20.9884 -0.446971 21.0007C-0.402218 21.013 -0.36037 21.0341 -0.323879 21.0628C-0.287388 21.0915 -0.25699 21.1271 -0.234468 21.1677C-0.211169 21.2079 -0.196151 21.2524 -0.190297 21.2985C-0.184443 21.3446 -0.187871 21.3914 -0.20038 21.4362C-0.212889 21.481 -0.234226 21.5228 -0.263136 21.5592C-0.292045 21.5956 -0.327945 21.6259 -0.368719 21.6482C-0.72156 21.8511 -1.08061 22.0603 -1.43421 22.275ZM0.903149 20.7625C0.96645 20.8114 1.04456 20.8372 1.12453 20.8356C1.17989 20.832 1.23414 20.8184 1.28469 20.7956C1.83111 20.5294 2.40344 20.275 2.97578 20.0348C3.06161 19.9975 3.1294 19.928 3.16462 19.8412C3.19984 19.7545 3.19969 19.6574 3.1642 19.5708C3.08412 19.3965 2.86979 19.3023 2.69785 19.3824C2.11139 19.6226 1.5367 19.8888 0.964369 20.1691C0.892417 20.204 0.834565 20.2625 0.800392 20.3348C0.766218 20.4071 0.757775 20.489 0.776463 20.5667C0.795151 20.6445 0.839849 20.7136 0.903149 20.7625ZM4.38501 19.3149C4.44447 19.3579 4.51577 19.3815 4.58914 19.3824H4.5915C4.62919 19.3824 4.66922 19.3824 4.70926 19.3565C5.2816 19.1563 5.88219 18.9702 6.48279 18.8101C6.57292 18.7833 6.64878 18.722 6.6938 18.6394C6.73882 18.5569 6.74933 18.4599 6.72303 18.3696C6.69627 18.2795 6.63492 18.2036 6.55239 18.1586C6.46985 18.1136 6.37285 18.1031 6.28259 18.1294C5.682 18.2895 5.06962 18.4897 4.46903 18.6899C4.38249 18.7238 4.31225 18.7896 4.27281 18.8738C4.23337 18.9579 4.22773 19.054 4.25705 19.1422C4.28086 19.2116 4.32555 19.2719 4.38501 19.3149Z" fill="#296161"/>
<path d="M36.6949 13.7931C36.6965 11.2573 36.1972 8.7462 35.2255 6.404C34.2539 4.0618 32.829 1.93466 31.0328 0.144775L29.0811 2.0965C32.1801 5.19423 33.9236 9.3949 33.929 13.7767C33.9344 18.1585 32.2012 22.3634 29.1097 25.4687C26.0183 28.574 21.8212 30.3261 17.4394 30.3403C13.0576 30.3546 8.84921 28.6299 5.73762 25.5448L5.68521 25.4924L3.73486 27.4427C5.52503 29.2388 7.65244 30.6635 9.99489 31.635C12.3373 32.6064 14.8486 33.1054 17.3845 33.1034V37.2413H11.8673V39.9999H25.6604V37.2413H20.1431V32.8827C24.7339 32.2172 28.9322 29.9225 31.971 26.4177C35.0099 22.9128 36.6866 18.4318 36.6949 13.7931Z" fill="white"/>
</g>
<defs>
<clipPath id="clip0_285_1300">
<rect width="35.8621" height="40" fill="white" transform="translate(0.833008)"/>
</clipPath>
</defs>
</svg>
