<svg width="20" height="21" viewBox="0 0 20 21" fill="none" xmlns="http://www.w3.org/2000/svg">
<path d="M18.3332 13.5049C18.3332 16.5383 16.5248 18.3466 13.4915 18.3466H12.4998C12.0415 18.3466 11.6665 17.9716 11.6665 17.5133V12.7049C11.6665 12.4799 11.8498 12.2883 12.0748 12.2883L13.5415 12.2633C13.6582 12.2549 13.7582 12.1716 13.7832 12.0549L14.0748 10.4633C14.0998 10.3133 13.9832 10.1716 13.8248 10.1716L12.0498 10.1966C11.8165 10.1966 11.6332 10.0133 11.6248 9.78827L11.5915 7.7466C11.5915 7.61326 11.6998 7.49661 11.8415 7.49661L13.8415 7.46327C13.9832 7.46327 14.0915 7.35494 14.0915 7.21328L14.0582 5.21326C14.0582 5.07159 13.9498 4.96327 13.8082 4.96327L11.5582 4.99661C10.1748 5.02161 9.07485 6.15493 9.09985 7.53826L9.1415 9.82993C9.14984 10.0633 8.96651 10.2466 8.73318 10.2549L7.73317 10.2716C7.5915 10.2716 7.48318 10.3799 7.48318 10.5216L7.50818 12.1049C7.50818 12.2466 7.6165 12.3549 7.75817 12.3549L8.75818 12.3383C8.99151 12.3383 9.17483 12.5216 9.18316 12.7466L9.25816 17.4966C9.26649 17.9633 8.89149 18.3466 8.42482 18.3466H6.50817C3.47484 18.3466 1.6665 16.5383 1.6665 13.4966V6.5216C1.6665 3.48826 3.47484 1.67993 6.50817 1.67993H13.4915C16.5248 1.67993 18.3332 3.48826 18.3332 6.5216V13.5049Z" fill="white"/>
</svg>
