<svg width="24" height="24" viewBox="0 0 24 24" fill="none" xmlns="http://www.w3.org/2000/svg">
<path d="M8.27977 2.50064C8.90977 2.5198 9.51977 2.6298 10.1108 2.8308H10.1698C10.2098 2.8498 10.2398 2.8708 10.2598 2.8898C10.4808 2.9608 10.6898 3.0408 10.8898 3.1508L11.2698 3.3208C11.4198 3.4008 11.5998 3.5498 11.6998 3.6108C11.7998 3.6698 11.9098 3.7308 11.9998 3.7998C13.1108 2.9508 14.4598 2.4908 15.8498 2.50064C16.4808 2.50064 17.1108 2.5898 17.7098 2.7908C21.4008 3.9908 22.7308 8.0408 21.6198 11.5808C20.9898 13.3898 19.9598 15.0408 18.6108 16.3898C16.6798 18.2598 14.5608 19.9198 12.2798 21.3498L12.0298 21.5008L11.7698 21.3398C9.48077 19.9198 7.34977 18.2598 5.40077 16.3798C4.06077 15.0308 3.02977 13.3898 2.38977 11.5808C1.25977 8.0408 2.58977 3.9908 6.32077 2.7698C6.61077 2.6698 6.90977 2.5998 7.20977 2.5608H7.32977C7.61077 2.5198 7.88977 2.50064 8.16977 2.50064H8.27977ZM17.1898 5.6608C16.7798 5.5198 16.3298 5.7408 16.1798 6.1608C16.0398 6.5808 16.2598 7.0408 16.6798 7.1898C17.3208 7.4298 17.7498 8.0608 17.7498 8.7598V8.7908C17.7308 9.0198 17.7998 9.2408 17.9398 9.4108C18.0798 9.5808 18.2898 9.6798 18.5098 9.7008C18.9198 9.6898 19.2698 9.3608 19.2998 8.9398V8.8208C19.3298 7.4198 18.4808 6.1508 17.1898 5.6608Z" fill="white"/>
</svg>
