<svg width="20" height="21" viewBox="0 0 20 21" fill="none" xmlns="http://www.w3.org/2000/svg">
<path d="M13.4915 1.67993H6.50817C3.47484 1.67993 1.6665 3.48826 1.6665 6.5216V13.4966C1.6665 16.5383 3.47484 18.3466 6.50817 18.3466H13.4832C16.5165 18.3466 18.3248 16.5383 18.3248 13.5049V6.5216C18.3332 3.48826 16.5248 1.67993 13.4915 1.67993ZM9.99984 13.2466C8.2165 13.2466 6.7665 11.7966 6.7665 10.0133C6.7665 8.22993 8.2165 6.77993 9.99984 6.77993C11.7832 6.77993 13.2332 8.22993 13.2332 10.0133C13.2332 11.7966 11.7832 13.2466 9.99984 13.2466ZM14.9332 5.7466C14.8915 5.8466 14.8332 5.93826 14.7582 6.0216C14.6748 6.0966 14.5832 6.15493 14.4832 6.1966C14.3832 6.23827 14.2748 6.26326 14.1665 6.26326C13.9415 6.26326 13.7332 6.17993 13.5748 6.0216C13.4998 5.93826 13.4415 5.8466 13.3998 5.7466C13.3582 5.6466 13.3332 5.53826 13.3332 5.42993C13.3332 5.3216 13.3582 5.21326 13.3998 5.11326C13.4415 5.00493 13.4998 4.9216 13.5748 4.83826C13.7665 4.6466 14.0582 4.55493 14.3248 4.61326C14.3832 4.6216 14.4332 4.63826 14.4832 4.66326C14.5332 4.67993 14.5832 4.70493 14.6332 4.73827C14.6748 4.76326 14.7165 4.80493 14.7582 4.83826C14.8332 4.9216 14.8915 5.00493 14.9332 5.11326C14.9748 5.21326 14.9998 5.3216 14.9998 5.42993C14.9998 5.53826 14.9748 5.6466 14.9332 5.7466Z" fill="white"/>
</svg>
