<svg width="20" height="21" viewBox="0 0 20 21" fill="none" xmlns="http://www.w3.org/2000/svg">
<g clip-path="url(#clip0_285_1360)">
<path d="M0 1.44568C0 0.654434 0.6575 0.0131836 1.46875 0.0131836H18.5312C19.3425 0.0131836 20 0.654434 20 1.44568V18.5807C20 19.3719 19.3425 20.0132 18.5312 20.0132H1.46875C0.6575 20.0132 0 19.3719 0 18.5807V1.44568ZM6.17875 16.7557V7.72443H3.1775V16.7557H6.17875ZM4.67875 6.49068C5.725 6.49068 6.37625 5.79818 6.37625 4.93068C6.3575 4.04443 5.72625 3.37068 4.69875 3.37068C3.67125 3.37068 3 4.04568 3 4.93068C3 5.79818 3.65125 6.49068 4.65875 6.49068H4.67875ZM10.8138 16.7557V11.7119C10.8138 11.4419 10.8337 11.1719 10.9137 10.9794C11.13 10.4407 11.6238 9.88193 12.4538 9.88193C13.54 9.88193 13.9738 10.7094 13.9738 11.9244V16.7557H16.975V11.5757C16.975 8.80068 15.495 7.51068 13.52 7.51068C11.9275 7.51068 11.2137 8.38568 10.8138 9.00193V9.03318H10.7938C10.8004 9.02275 10.8071 9.01233 10.8138 9.00193V7.72443H7.81375C7.85125 8.57193 7.81375 16.7557 7.81375 16.7557H10.8138Z" fill="white"/>
</g>
<defs>
<clipPath id="clip0_285_1360">
<rect width="20" height="20" fill="white" transform="translate(0 0.0131836)"/>
</clipPath>
</defs>
</svg>
