<svg width="59" height="59" viewBox="0 0 59 59" fill="none" xmlns="http://www.w3.org/2000/svg">
<path opacity="0.5" d="M29.5001 4.91667C24.638 4.91667 19.885 6.35846 15.8423 9.05971C11.7996 11.761 8.64871 15.6003 6.78805 20.0924C4.9274 24.5844 4.44057 29.5273 5.38912 34.296C6.33767 39.0647 8.67901 43.445 12.1171 46.883C15.5551 50.3211 19.9354 52.6624 24.7041 53.611C29.4728 54.5595 34.4157 54.0727 38.9077 52.212C43.3997 50.3514 47.2391 47.2005 49.9404 43.1578C52.6416 39.1151 54.0834 34.3621 54.0834 29.5C54.0834 26.2717 53.4476 23.075 52.2121 20.0924C50.9767 17.1098 49.1659 14.3997 46.8831 12.117C44.6004 9.83419 41.8903 8.02339 38.9077 6.78796C35.9251 5.55253 32.7284 4.91667 29.5001 4.91667ZM29.5001 49.1667C25.6104 49.1667 21.808 48.0132 18.5739 45.8522C15.3397 43.6912 12.819 40.6197 11.3305 37.0261C9.84194 33.4325 9.45247 29.4782 10.2113 25.6632C10.9702 21.8483 12.8432 18.344 15.5937 15.5936C18.3441 12.8431 21.8484 10.9701 25.6633 10.2112C29.4783 9.45238 33.4326 9.84185 37.0262 11.3304C40.6198 12.8189 43.6913 15.3396 45.8523 18.5738C48.0133 21.808 49.1668 25.6103 49.1668 29.5C49.1668 34.7159 47.0947 39.7182 43.4065 43.4064C39.7183 47.0946 34.716 49.1667 29.5001 49.1667Z" fill="black"/>
<path d="M49.1667 29.5H54.0833C54.0833 26.2717 53.4475 23.075 52.212 20.0924C50.9766 17.1098 49.1658 14.3997 46.883 12.117C44.6003 9.83419 41.8902 8.02339 38.9076 6.78796C35.925 5.55253 32.7283 4.91667 29.5 4.91667V9.83333C34.7159 9.83333 39.7182 11.9054 43.4064 15.5936C47.0947 19.2818 49.1667 24.2841 49.1667 29.5Z" fill="white"/>
</svg>
