<svg width="59" height="59" viewBox="0 0 59 59" fill="none" xmlns="http://www.w3.org/2000/svg">
<g id="eos-icons:loading">
<path id="Vector" opacity="0.5" d="M29.5001 4.9165C24.638 4.9165 19.885 6.35829 15.8423 9.05954C11.7996 11.7608 8.64871 15.6002 6.78805 20.0922C4.9274 24.5842 4.44057 29.5271 5.38912 34.2958C6.33767 39.0645 8.67901 43.4448 12.1171 46.8829C15.5551 50.3209 19.9354 52.6623 24.7041 53.6108C29.4728 54.5594 34.4157 54.0725 38.9077 52.2119C43.3997 50.3512 47.2391 47.2003 49.9404 43.1576C52.6416 39.1149 54.0834 34.362 54.0834 29.4998C54.0834 26.2715 53.4476 23.0748 52.2121 20.0922C50.9767 17.1096 49.1659 14.3996 46.8831 12.1168C44.6004 9.83402 41.8903 8.02323 38.9077 6.7878C35.9251 5.55237 32.7284 4.9165 29.5001 4.9165ZM29.5001 49.1665C25.6104 49.1665 21.808 48.0131 18.5739 45.8521C15.3397 43.6911 12.819 40.6196 11.3305 37.0259C9.84194 33.4323 9.45247 29.478 10.2113 25.6631C10.9702 21.8481 12.8432 18.3438 15.5937 15.5934C18.3441 12.843 21.8484 10.9699 25.6633 10.2111C29.4783 9.45222 33.4326 9.84168 37.0262 11.3302C40.6198 12.8187 43.6913 15.3395 45.8523 18.5736C48.0133 21.8078 49.1668 25.6101 49.1668 29.4998C49.1668 34.7158 47.0947 39.7181 43.4065 43.4063C39.7183 47.0945 34.716 49.1665 29.5001 49.1665Z" fill="black"/>
<path id="Vector_2" d="M49.1667 29.4998H54.0833C54.0833 26.2715 53.4475 23.0748 52.212 20.0922C50.9766 17.1096 49.1658 14.3996 46.883 12.1168C44.6003 9.83402 41.8902 8.02323 38.9076 6.7878C35.925 5.55237 32.7283 4.9165 29.5 4.9165V9.83317C34.7159 9.83317 39.7182 11.9052 43.4064 15.5934C47.0947 19.2816 49.1667 24.2839 49.1667 29.4998Z" fill="black"/>
</g>
</svg>
