<svg width="100" height="100" viewBox="0 0 100 100" fill="none" xmlns="http://www.w3.org/2000/svg">
<rect width="100" height="100" rx="50" fill="#171010"/>
<circle cx="50" cy="50" r="39.5161" stroke="white" stroke-width="1.6129" stroke-dasharray="13.44 13.44"/>
<path d="M40.7841 44.88L36.6081 56H34.4961L30.3041 44.88H32.2561L35.5521 54.128L38.8641 44.88H40.7841ZM44.1335 44.88V56H42.3095V44.88H44.1335ZM48.3522 46.352V49.616H52.1922V51.104H48.3522V54.512H52.6722V56H46.5282V44.864H52.6722V46.352H48.3522ZM69.3989 44.88L66.1029 56H64.0389L61.7029 47.584L59.2229 56L57.1749 56.016L54.0229 44.88H55.9589L58.2629 53.936L60.7589 44.88H62.8069L65.1269 53.888L67.4469 44.88H69.3989Z" fill="white"/>
</svg>
