<svg width="19" height="18" viewBox="0 0 19 18" fill="none" xmlns="http://www.w3.org/2000/svg">
<path fill-rule="evenodd" clip-rule="evenodd" d="M8.38887 0.697939L6.76621 6.2347C6.72566 6.37299 6.60017 6.46713 6.45792 6.46713H1.23085C0.813123 6.46713 0.442385 6.73917 0.313012 7.1404C0.183638 7.54163 0.32523 7.98117 0.663789 8.22918L4.90286 11.3358C5.01549 11.4183 5.06248 11.565 5.01936 11.6988L3.40059 16.7252C3.27122 17.1264 3.41281 17.5666 3.75137 17.814C4.08928 18.062 4.54756 18.062 4.88612 17.814L9.12519 14.7074C9.23783 14.6249 9.39102 14.6249 9.50366 14.7074L13.7427 17.814C14.0813 18.062 14.5396 18.062 14.8775 17.814C15.216 17.5666 15.3576 17.1264 15.2283 16.7252L13.6095 11.6988C13.5664 11.565 13.6134 11.4183 13.726 11.3358L17.9651 8.22918C18.3036 7.98117 18.4452 7.54163 18.3158 7.1404C18.1865 6.73917 17.8157 6.46713 17.398 6.46713H12.1709C12.0287 6.46713 11.9032 6.37299 11.8626 6.2347L10.24 0.697939C10.119 0.284369 9.74245 0 9.31442 0C8.8864 0 8.50987 0.284369 8.38887 0.697939Z" fill="#171010"/>
</svg>
