<svg width="22" height="21" viewBox="0 0 22 21" fill="none" xmlns="http://www.w3.org/2000/svg">
<path fill-rule="evenodd" clip-rule="evenodd" d="M9.90798 1.22444L8.096 7.40724C8.05071 7.56167 7.91058 7.66679 7.75173 7.66679H1.91476C1.4483 7.66679 1.0343 7.97057 0.88983 8.41862C0.745361 8.86667 0.903474 9.35749 1.28154 9.63444L6.01522 13.1036C6.141 13.1956 6.19347 13.3595 6.14532 13.5088L4.33767 19.1218C4.1932 19.5698 4.35132 20.0614 4.72938 20.3376C5.10672 20.6146 5.61847 20.6146 5.99653 20.3376L10.7302 16.8685C10.856 16.7764 11.0271 16.7764 11.1529 16.8685L15.8865 20.3376C16.2646 20.6146 16.7764 20.6146 17.1537 20.3376C17.5318 20.0614 17.6899 19.5698 17.5454 19.1218L15.7378 13.5088C15.6896 13.3595 15.7421 13.1956 15.8679 13.1036L20.6015 9.63444C20.9796 9.35749 21.1377 8.86667 20.9932 8.41862C20.8488 7.97057 20.4348 7.66679 19.9683 7.66679H14.1313C13.9725 7.66679 13.8324 7.56167 13.7871 7.40724L11.9751 1.22444C11.84 0.762618 11.4195 0.445068 10.9415 0.445068C10.4636 0.445068 10.0431 0.762618 9.90798 1.22444Z" fill="#D9DBDF"/>
</svg>
