<svg width="21" height="21" viewBox="0 0 21 21" fill="none" xmlns="http://www.w3.org/2000/svg">
<path fill-rule="evenodd" clip-rule="evenodd" d="M9.07107 1.22444L7.25908 7.40724C7.2138 7.56167 7.07366 7.66679 6.91482 7.66679H1.07785C0.611381 7.66679 0.197385 7.97057 0.052916 8.41862C-0.0915528 8.86667 0.0665599 9.35749 0.444622 9.63444L5.17831 13.1036C5.30409 13.1956 5.35656 13.3595 5.3084 13.5088L3.50076 19.1218C3.35629 19.5698 3.5144 20.0614 3.89246 20.3376C4.26981 20.6146 4.78156 20.6146 5.15962 20.3376L9.89331 16.8685C10.0191 16.7764 10.1902 16.7764 10.3159 16.8685L15.0496 20.3376C15.4277 20.6146 15.9394 20.6146 16.3168 20.3376C16.6948 20.0614 16.853 19.5698 16.7085 19.1218L14.9008 13.5088C14.8527 13.3595 14.9052 13.1956 15.0309 13.1036L19.7646 9.63444C20.1427 9.35749 20.3008 8.86667 20.1563 8.41862C20.0119 7.97057 19.5979 7.66679 19.1314 7.66679H13.2944C13.1356 7.66679 12.9954 7.56167 12.9502 7.40724L11.1382 1.22444C11.0031 0.762618 10.5826 0.445068 10.1046 0.445068C9.62665 0.445068 9.20619 0.762618 9.07107 1.22444Z" fill="#296161"/>
</svg>
