<svg width="24" height="25" viewBox="0 0 24 25" fill="none" xmlns="http://www.w3.org/2000/svg">
<path d="M8.283 20.2762C15.83 20.2762 19.959 14.0172 19.959 8.59918C19.959 8.42318 19.959 8.24718 19.951 8.07118C20.7551 7.48851 21.4489 6.76724 22 5.94118C21.2496 6.27272 20.4544 6.49142 19.64 6.59018C20.498 6.07647 21.1405 5.2688 21.448 4.31718C20.6415 4.79564 19.7586 5.13156 18.838 5.31018C18.4548 4.90076 17.9916 4.57439 17.4771 4.35129C16.9626 4.12819 16.4078 4.01311 15.847 4.01318C14.7583 4.01398 13.7143 4.44683 12.9445 5.21668C12.1746 5.98653 11.7418 7.03045 11.741 8.11918C11.741 8.43918 11.781 8.75118 11.845 9.05518C10.2129 8.97322 8.61627 8.54893 7.15879 7.80985C5.7013 7.07077 4.41555 6.03343 3.385 4.76518C2.86128 5.66974 2.70141 6.73969 2.93783 7.75783C3.17426 8.77596 3.78927 9.66598 4.658 10.2472C4.00708 10.2246 3.37059 10.0493 2.8 9.73518V9.79118C2.80088 10.7385 3.12873 11.6564 3.72816 12.39C4.32759 13.1235 5.16186 13.6276 6.09 13.8172C5.73825 13.9142 5.37488 13.9627 5.01 13.9612C4.745 13.9612 4.489 13.9372 4.24 13.8892C4.50164 14.705 5.01201 15.4184 5.69958 15.9295C6.38714 16.4406 7.21742 16.7237 8.074 16.7392C6.62055 17.8817 4.82477 18.5017 2.976 18.4992C2.648 18.4992 2.32 18.4832 2 18.4432C3.87671 19.6408 6.05673 20.2768 8.283 20.2762Z" fill="white"/>
</svg>
